<svg xmlns="http://www.w3.org/2000/svg" xmlns:xlink="http://www.w3.org/1999/xlink" xmlns:lucid="lucid" width="1827.69" height="2260"><g transform="translate(-132.30783202522957 -160)" lucid:page-tab-id="0_0"><path d="M391.82 436.36a6 6 0 0 1 6-6H1894a6 6 0 0 1 6 6V2334a6 6 0 0 1-6 6H397.82a6 6 0 0 1-6-6z" stroke="#248814" fill="#fff" fill-opacity="0"/><path d="M391.82 430.36h56v56h-56v-56z" stroke="#fff" stroke-opacity="0" fill="#248814"/><path d="M423.58 458.66h-1.2v-1.1c-.1-1.73-1.46-3.08-3.18-3.2-1.9-.13-3.54 1.3-3.67 3.2v1.07h-1.18c-.45 0-.8.36-.8.8v6.12c0 .45.35.8.8.8h9.23c.44 0 .8-.35.8-.8v-6.08c0-.45-.36-.8-.8-.8zm-6.4-1.07c.1-1.03 1-1.77 2-1.68.9.1 1.58.77 1.67 1.67v1.06h-3.72zm5.65 7.08h-7.68v-4.42h7.62z" stroke="#fff" stroke-opacity="0" fill="#fff"/><path d="M434.1 456.1c-.1-2.44-1.6-4.47-3.88-5.3-1.6-.46-3.17-.13-4.42.9-.66-1.45-1.45-2.6-2.57-3.75-3.25-3.35-7.95-4.3-12.2-2.4-4.03 1.9-6.4 5.64-6.53 10.06v.72c-3.4.96-5.66 4.06-5.5 7.63v.64c.38 4.27 3.92 7.5 8.2 7.45h26s7.42-.63 7.42-8.1c.04-3.9-2.66-7.2-6.53-7.85zm-.97 14.4H407.2c-3.45.04-6.28-2.54-6.57-5.97V464c-.17-3.04 1.9-5.7 4.9-6.3.4-.12.63-.47.6-.88-.05-.42-.05-.75 0-1.16.08-3.8 2.12-6.94 5.53-8.6 1.25-.57 2.4-.82 3.83-.84 2.6.08 4.85 1.04 6.68 2.94 1.25 1.3 2.04 2.6 2.63 4.3.05.14.13.28.26.36.37.28.87.2 1.12-.16.83-1.18 2.25-1.68 3.62-1.3 1.8.72 2.87 2.4 2.83 4.32-.08.4.2.82.62.9 3.58.36 6.2 3.55 5.83 7.12-.3 3.13-2.7 5.5-5.83 5.84z" stroke="#fff" stroke-opacity="0" fill="#fff"/><use xlink:href="#a" transform="matrix(1,0,0,1,462.8171559946328,450.35681932061414) translate(0 14.4)"/><use xlink:href="#b" transform="matrix(1,0,0,1,462.8171559946328,450.35681932061414) translate(41.95 14.4)"/><use xlink:href="#c" transform="matrix(1,0,0,1,462.8171559946328,450.35681932061414) translate(52.900000000000006 14.4)"/><path d="M503.82 528.94a6 6 0 0 1 6-6H1034a6 6 0 0 1 6 6V1834a6 6 0 0 1-6 6H509.82a6 6 0 0 1-6-6z" fill="#fff" fill-opacity="0"/><path d="M506.9 523.72l.2-.13.86-.37.92-.22h2m3.97 0h3.97m3.98 0h3.98m3.98 0h3.98m3.97 0h4m3.97 0h3.98m3.98 0h3.98m3.98 0h3.98m3.98 0h3.98m3.98 0h3.98m3.97 0h3.98m3.98 0h4m3.97 0h3.97m3.98 0h3.98m3.98 0h3.98m3.98 0h3.97m4 0h3.97m3.98 0h3.98m3.97 0h3.98m3.98 0h3.98m3.98 0H670m3.97 0h3.98m3.98 0h3.98m4 0h3.96m3.98 0h3.98m3.98 0h3.98m3.98-.02h3.97m3.98 0h4m3.97 0h3.98m3.97 0h3.98m3.98 0h3.98m3.98 0h3.98m3.97 0h3.97m3.98 0h3.98m3.98 0h3.98m3.98 0h3.98m3.98 0h3.98m3.98 0h3.97m3.98 0h3.98m4 0h3.97m3.97 0h3.98m3.98 0h3.98m3.98 0h3.98m3.97 0l4-.02m3.97 0h3.98m3.98 0h3.97m3.98 0h3.98m3.98 0h3.98m3.98 0h3.97m3.98 0h3.98m3.98 0h4m3.97 0h3.97m3.98 0h3.98m3.98 0h3.98m3.97 0h3.98m4 0h3.97m3.98 0h3.98m3.97 0h3.98m3.98 0h3.98m3.98 0h3.97m3.97 0h3.98m3.98 0l3.98-.02m4 0h3.96m3.98 0h3.98m3.98 0h3.98m3.97 0h3.98m3.98 0h2l.94.07.9.23.23.1m3.15 2.68l.13.22.36.87.23.9v2m0 4v4.02m0 4v4m0 4v4.02m0 4v4m0 4.02v4m0 4v4.02m0 4v4m0 4.02v4m0 4v4m0 4.02v4m0 4v4.02m0 4v4m0 4.02v4m0 4v4.02m0 4v4m0 4v4.02m0 4v4m0 4.02v4m0 4v4.02m0 4v4m0 4.02v4m0 4v4m0 4.02v4m0 4v4.02m0 4v4m0 4.02v4m0 4v4.02m0 4v4m0 4v4.02m0 4v4m0 4.02v4m0 4v4.02m0 4v4m0 4v4.02m0 4v4m0 4.02v4m0 4v4.02m0 4v4m0 4.02v4m0 4v4m0 4.02v4m0 4l.02 4.02m0 4v4m0 4.02v4m0 4v4.02m0 4v4m0 4v4.02m0 4v4m0 4.02v4m0 4v4.02m0 4v4m0 4.02v4m0 4v4m0 4.02v4m0 4v4.02m0 4v4m0 4.02v4m0 4v4.02m0 4v4m0 4v4.02m0 4v4m0 4.02v4m0 4v4.02m0 4v4m0 4.02v4m0 4v4m0 4.02v4m0 4v4.02m0 4v4m0 4.02v4m0 4v4m0 4.02v4m0 4v4.02m0 4v4m0 4.02v4m0 4v4.02m0 4v4m0 4v4.02m0 4v4m0 4.02v4m0 4v4.02m0 4v4m0 4.02v4m0 4v4m0 4.02v4m0 4l.02 4.02m0 4v4m0 4.02v4m0 4v4.02m0 4v4m0 4v4.02m0 4v4m0 4.02v4m0 4v4.02m0 4v4m0 4.02v4m0 4v4m0 4.02v4m0 4v4.02m0 4v4m0 4.02v4m0 4v4m0 4.02v4m0 4v4.02m0 4v4m0 4.02v4m0 4v4.02m0 4v4m0 4v4.02m0 4v4m0 4.02v4m0 4v4.02m0 4v4m0 4.02v4m0 4v4m0 4.02v4m0 4v4.02m0 4v4m0 4.02v4m0 4v4.02m0 4v4m0 4v4.02m0 4v4m0 4.02v4m0 4v4.02m0 4v4m0 4.02v4m0 4v4m0 4.02v4m0 4l.02 4.02m0 4v4m0 4.02v4m0 4v4.02m0 4v4m0 4v4.02m0 4v4m0 4.02v4m0 4v4.02m0 4v4m0 4v4.02m0 4v4m0 4.02v4m0 4v4.02m0 4v4m0 4.02v4m0 4v4m0 4.02v4m0 4v4.02m0 4v4m0 4.02v4m0 4v4.02m0 4v4m0 4v4.02m0 4v4m0 4.02v4m0 4v4.02m0 4v4m0 4.02v4m0 4v4m0 4.02v4m0 4v4.02m0 4v4m0 4.02v2l-.07.94-.22.9-.08.23m-2.7 3.15l-.2.13-.87.36-.9.23h-2m-3.98 0H1025m-4 0h-3.96m-3.98 0h-3.98m-3.98 0h-3.98m-3.97 0h-3.98m-3.98 0h-4m-3.97 0h-3.98m-3.97 0h-3.98m-3.98 0h-3.98m-3.98 0h-3.97m-4 0h-3.97m-3.98 0h-3.98m-3.98 0h-3.98m-3.98 0h-3.98m-3.98 0h-3.98m-3.97 0h-3.98m-3.98 0l-3.98.02m-4 0h-3.97m-3.97 0h-3.98m-3.98 0h-3.98m-3.98 0h-3.97m-3.98 0h-4m-3.97 0h-3.98m-3.98 0H842m-3.98 0h-3.98m-3.98 0h-3.98m-3.97 0h-3.97m-3.98 0h-3.98m-3.98 0h-4m-3.96 0h-3.98m-3.98 0h-3.98m-3.98 0h-3.97m-3.98 0h-3.98m-4 0h-3.97m-3.98 0l-3.97.02m-3.98 0h-3.98m-3.98 0h-3.98m-3.97 0h-4m-3.97 0h-3.98m-3.98 0h-3.98m-3.98 0h-3.98m-3.98 0h-3.98m-3.98 0h-3.98m-3.97 0h-3.98m-3.98 0h-4m-3.97 0h-3.97m-3.98 0H659m-3.98 0h-3.98m-3.98 0h-3.97m-4 0h-3.97m-3.98 0h-3.98m-3.97 0h-3.98m-3.98.02h-3.98m-3.98 0h-3.98m-3.97 0h-3.98m-3.98 0h-3.98m-4 0h-3.96m-3.98 0h-3.98m-3.98 0h-3.98m-3.98 0h-3.97m-3.98 0h-4m-3.97 0h-3.98m-3.97 0h-3.98m-3.98 0h-3.98m-3.98 0h-3.98m-3.97 0h-1.98l-.94-.07-.92-.22-.2-.08m-3.17-2.7l-.13-.2-.36-.87-.2-.9v-2m0-4.02v-4m0-4v-4.02m0-4v-4m0-4v-4m0-4.02v-4m0-4v-4.02m0-4v-4m0-4.02v-4m0-4v-4m0-4.02v-4m0-4v-4.02m0-4v-4m0-4.02v-4m-.02-4v-4.02m0-4v-4m0-4v-4.02m0-4v-4m0-4.02v-4m0-4v-4.02m0-4v-4m0-4.02v-4m0-4v-4m0-4.02v-4m0-4v-4.02m0-4v-4m0-4.02v-4m0-4v-4.02m0-4v-4m0-4v-4.02m0-4v-4m0-4.02v-4m0-4v-4.02m0-4v-4m0-4.02v-4m0-4v-4m0-4.02v-4m0-4v-4.02m0-4v-4m0-4.02v-4m0-4v-4.02m0-4v-4m0-4v-4.02m0-4v-4m0-4.02v-4m0-4v-4.02m0-4v-4m0-4v-4.02m0-4v-4m0-4.02v-4m0-4v-4.02m0-4v-4m0-4.02v-4m0-4v-4m0-4.02v-4m0-4v-4.02m0-4v-4m0-4.02v-4m-.02-4v-4.02m0-4v-4m0-4v-4.02m0-4v-4m0-4.02v-4m0-4v-4.02m0-4v-4m0-4.02v-4m0-4v-4m0-4.02v-4m0-4v-4.02m0-4v-4m0-4.02v-4m0-4v-4.02m0-4v-4m0-4v-4.02m0-4v-4m0-4.02v-4m0-4V1224m0-4v-4m0-4v-4.02m0-4v-4m0-4.02v-4m0-4v-4.02m0-4v-4m0-4.02v-4m0-4v-4m0-4.02v-4m0-4v-4.02m0-4v-4m0-4.02v-4m0-4v-4.02m0-4v-4m0-4v-4.02m0-4v-4m0-4.02v-4m0-4v-4.02m0-4v-4m0-4.02v-4m0-4v-4m0-4.02v-4m0-4v-4.02m0-4v-4m0-4.02v-4m-.02-4v-4.02m0-4v-4m0-4v-4.02m0-4v-4m0-4.02v-4m0-4v-4.02m0-4v-4m0-4.02v-4m0-4v-4m0-4.02v-4m0-4v-4.02m0-4v-4m0-4.02v-4m0-4v-4m0-4.02v-4m0-4v-4.02m0-4v-4m0-4.02v-4m0-4v-4.02m0-4v-4m0-4v-4.02m0-4v-4m0-4.02v-4m0-4v-4.02m0-4v-4m0-4.02v-4m0-4v-4m0-4.02v-4m0-4v-4.02m0-4v-4m0-4.02v-4m0-4v-4.02m0-4v-4m0-4v-4.02m0-4v-4m0-4.02v-4m0-4v-4.02m0-4v-4m0-4.02v-4m0-4v-4m0-4.02v-4m0-4v-4.02m0-4v-4m0-4.02v-4m-.02-4v-4.02m0-4v-4m0-4v-4.02m0-4v-4m0-4.02v-4m0-4v-4.02m0-4v-4m0-4v-4.02m0-4v-4m0-4.02v-4m0-4V583m0-4v-4m0-4.02v-4m0-4v-4m0-4.02v-4m0-4v-4.02m0-4v-4m0-4.02v-2l.07-.94.2-.9.1-.23" stroke="#147eba" fill="none"/><use xlink:href="#d" transform="matrix(1,0,0,1,503.81715599467117,542.9394964859293) translate(226.05 14.4)"/><path d="M1269.15 528.94a6 6 0 0 1 6-6h459.2a6 6 0 0 1 6 6V1834a6 6 0 0 1-6 6h-459.2a6 6 0 0 1-6-6z" fill="#fff" fill-opacity="0"/><path d="M1272.23 523.72l.2-.13.87-.37.9-.22h2m3.96 0h3.97m3.97 0h3.96m3.97 0h3.97m3.96 0h3.97m3.97 0h3.96m3.97 0h3.97m3.96 0h3.97m3.97 0h3.96m3.97 0h3.97m3.96 0h3.97m3.97 0h3.96m3.97 0h3.97m3.96 0h3.97m3.97 0h3.97m3.96 0h3.97m3.97 0h3.96m3.97 0h3.97m3.96 0h3.97m3.97 0h3.96m3.97 0h3.97m3.96 0h3.97m3.97 0h3.96m3.97-.02h3.97m3.96 0h3.97m3.97 0h3.96m3.97 0h3.97m3.96 0h3.97m3.97 0h3.96m3.97 0h3.97m3.97 0h3.96m3.97 0h3.97m3.96 0h3.97m3.97 0h3.96m3.97 0h3.97m3.96 0h3.97m3.97 0h3.96m3.97 0h3.97m3.96 0l3.97-.02m3.97 0h3.96m3.97 0h3.97m3.96 0h3.97m3.97 0h3.96m3.97 0h3.97m3.97 0h3.97m3.97 0h3.97m3.97 0h3.97m3.97 0h3.97m3.97 0h3.97m3.97 0h3.97m3.97 0h3.97m3.97 0h3.97m3.97 0h3.97m3.97 0h3.97m3.97-.02h3.97m3.97 0h3.97m3.97 0h3.97m3.97 0h3.97m3.97 0h2l.93.07.9.23.23.1m3.15 2.68l.12.22.36.87.22.9v2m0 4v4.02m0 4v4m0 4v4.02m0 4v4m0 4.02v4m0 4v4.02m0 4v4m0 4.02v4m0 4v4m0 4.02v4m0 4v4.02m0 4v4m0 4.02v4m0 4v4.02m0 4v4m0 4v4.02m0 4v4m0 4.02v4m0 4v4.02m0 4v4m0 4.02v4m0 4v4m0 4.02v4m.02 4v4.02m0 4v4m0 4.02v4m0 4v4.02m0 4v4m0 4v4.02m0 4v4m0 4.02v4m0 4v4.02m0 4v4m0 4v4.02m0 4v4m0 4.02v4m0 4v4.02m0 4v4m0 4.02v4m0 4v4m0 4.02v4m0 4v4.02m0 4v4m0 4.02v4m0 4v4.02m0 4v4m0 4v4.02m0 4v4m0 4.02v4m0 4v4.02m0 4v4m0 4.02v4m0 4v4m0 4.02v4m0 4v4.02m0 4v4m0 4.02v4m0 4v4.02m0 4v4m0 4v4.02m0 4v4m0 4.02v4m0 4v4.02m0 4v4m0 4.02v4m0 4v4m0 4.02v4m.02 4v4.02m0 4v4m0 4.02v4m0 4v4m0 4.02v4m0 4v4.02m0 4v4m0 4.02v4m0 4v4.02m0 4v4m0 4v4.02m0 4v4m0 4.02v4m0 4v4.02m0 4v4m0 4.02v4m0 4v4m0 4.02v4m0 4v4.02m0 4v4m0 4.02v4m0 4v4.02m0 4v4m0 4v4.02m0 4v4m0 4.02v4m0 4v4.02m0 4v4m0 4.02v4m0 4v4m0 4.02v4m0 4v4.02m0 4v4m0 4.02v4m0 4v4m0 4.02v4m0 4v4.02m0 4v4m0 4.02v4m0 4v4.02m0 4v4m0 4v4.02m0 4v4m0 4.02v4m0 4l.02 4.02m0 4v4m0 4.02v4m0 4v4m0 4.02v4m0 4v4.02m0 4v4m0 4.02v4m0 4v4.02m0 4v4m0 4v4.02m0 4v4m0 4.02v4m0 4v4.02m0 4v4m0 4.02v4m0 4v4m0 4.02v4m0 4v4.02m0 4v4m0 4.02v4m0 4v4.02m0 4v4m0 4v4.02m0 4v4m0 4.02v4m0 4v4.02m0 4v4m0 4v4.02m0 4v4m0 4.02v4m0 4v4.02m0 4v4m0 4.02v4m0 4v4m0 4.02v4m0 4v4.02m0 4v4m0 4.02v4m0 4v4.02m0 4v4m0 4v4.02m0 4v4m0 4.02v4m0 4l.02 4.02m0 4v4m0 4.02v4m0 4v4m0 4.02v4m0 4v4.02m0 4v4m0 4.02v2l-.08.94-.22.9-.1.23m-2.68 3.15l-.2.13-.87.36-.9.23h-2m-3.95 0h-3.97m-3.97 0h-3.95m-3.97 0h-3.97m-3.95 0h-3.97m-3.97 0h-3.95m-3.97 0h-3.97m-3.95 0h-3.97m-3.97 0h-3.96m-3.96 0h-3.97m-3.96 0h-3.96m-3.97 0h-3.96m-3.96 0h-3.97m-3.96 0h-3.96m-3.97 0h-3.96m-3.96 0l-3.97.02m-3.96 0h-3.96m-3.97 0h-3.96m-3.96 0h-3.97m-3.96 0h-3.96m-3.97 0h-3.96m-3.96 0h-3.97m-3.96 0h-3.96m-3.97 0h-3.96m-3.97 0h-3.96m-3.96 0h-3.97m-3.96 0h-3.96m-3.97 0h-3.96m-3.96 0h-3.97m-3.96 0h-3.96m-3.97 0h-3.96m-3.96.02h-3.97m-3.96 0h-3.96m-3.97 0h-3.96m-3.96 0h-3.97m-3.96 0h-3.96m-3.97 0h-3.96m-3.96 0h-3.97m-3.96 0h-3.96m-3.97 0h-3.97m-3.96 0h-3.97m-3.97 0h-3.96m-3.97 0h-3.97m-3.96 0h-3.97m-3.97 0h-3.96m-3.97 0h-3.97m-3.96 0l-3.97.02m-3.97 0h-3.96m-3.97 0h-3.97m-3.96 0h-3.97m-3.97 0h-3.96m-3.97 0h-3.97m-3.96 0h-3.97m-3.97 0h-3.97m-3.96 0h-3.97m-3.97 0h-3.96m-3.97 0h-3.97m-3.96 0h-3.97m-3.97 0h-1.98l-.94-.07-.9-.22-.22-.08m-3.15-2.7l-.13-.2-.36-.87-.22-.9v-2m0-4.02v-4m0-4v-4.02m0-4v-4m0-4v-4m0-4.02v-4m0-4v-4.02m0-4v-4m0-4.02v-4m0-4v-4m0-4.02v-4m0-4v-4.02m0-4v-4m0-4.02v-4m0-4v-4.02m0-4v-4m0-4v-4.02m0-4v-4m0-4.02v-4m0-4v-4.02m0-4v-4m0-4.02v-4m0-4v-4m0-4.02v-4m0-4v-4.02m0-4v-4m0-4.02v-4m0-4v-4.02m0-4v-4m0-4v-4.02m0-4v-4m0-4.02v-4m0-4v-4.02m0-4v-4m0-4.02v-4m0-4v-4m0-4.02v-4m0-4v-4.02m0-4v-4m0-4.02v-4m0-4v-4.02m0-4v-4m0-4v-4.02m0-4l-.02-4m0-4.02v-4m0-4v-4.02m0-4v-4m0-4v-4.02m0-4v-4m0-4.02v-4m0-4v-4.02m0-4v-4m0-4.02v-4m0-4v-4m0-4.02v-4m0-4v-4.02m0-4v-4m0-4.02v-4m0-4v-4.02m0-4v-4m0-4v-4.02m0-4v-4m0-4.02v-4m0-4v-4.02m0-4v-4m0-4.02v-4m0-4v-4m0-4.02v-4m0-4v-4.02m0-4v-4m0-4.02v-4m0-4v-4.02m0-4v-4m0-4v-4.02m0-4v-4m0-4.02v-4m0-4V1224m0-4v-4m0-4v-4.02m0-4v-4m0-4.02v-4m0-4v-4.02m0-4v-4m0-4.02v-4m0-4v-4m0-4.02v-4m0-4v-4.02m0-4l-.02-4m0-4.02v-4m0-4v-4.02m0-4v-4m0-4v-4.02m0-4v-4m0-4.02v-4m0-4v-4.02m0-4v-4m0-4.02v-4m0-4v-4m0-4.02v-4m0-4v-4.02m0-4v-4m0-4.02v-4m0-4v-4.02m0-4v-4m0-4v-4.02m0-4v-4m0-4.02v-4m0-4v-4.02m0-4v-4m0-4.02v-4m0-4v-4m0-4.02v-4m0-4v-4.02m0-4v-4m0-4.02v-4m0-4v-4m0-4.02v-4m0-4v-4.02m0-4v-4m0-4.02v-4m0-4v-4.02m0-4v-4m0-4v-4.02m0-4v-4m0-4.02v-4m0-4v-4.02m0-4v-4m0-4.02v-4m0-4v-4m0-4.02v-4m0-4v-4.02m0-4l-.02-4m0-4.02v-4m0-4v-4.02m0-4v-4m0-4v-4.02m0-4v-4m0-4.02v-4m0-4v-4.02m0-4v-4m0-4.02v-4m0-4v-4m0-4.02v-4m0-4v-4.02m0-4v-4m0-4.02v-4m0-4v-4.02m0-4v-4m0-4v-4.02m0-4v-4m0-4.02v-4m0-4v-4.02m0-4v-4m0-4v-4.02m0-4v-4m0-4.02v-4m0-4V583m0-4v-4m0-4.02v-4m0-4v-4m0-4.02v-4m0-4v-4.02m0-4v-4m0-4.02v-2l.06-.94.22-.9.1-.23" stroke="#147eba" fill="none"/><use xlink:href="#e" transform="matrix(1,0,0,1,1269.1504893280044,542.9394964859293) translate(193.55 14.4)"/><path d="M579.82 1252.23a6 6 0 0 1 6-6h332a6 6 0 0 1 6 6v604.33a6 6 0 0 1-6 6h-332a6 6 0 0 1-6-6z" fill="#147eba" fill-opacity=".13"/><path d="M579.82 1246.23h56v56h-56v-56z" stroke="#fff" stroke-opacity="0" fill="#147eba"/><path d="M623.2 1268.4c-.16-.16-.34-.24-.56-.24h-5.15v-5.57c-.04-2.55-.98-4.72-2.85-6.42-1.9-1.83-4.15-2.75-6.77-2.75-2.65 0-4.9.84-6.8 2.62-1.9 1.7-2.87 3.87-2.9 6.4v5.67h-5.15c-.25 0-.44.08-.6.25-.15.16-.2.33-.2.58v25.3c0 .4.33.78.8.78h29.58c.47 0 .82-.37.82-.8v-25.28c0-.2-.06-.37-.22-.54zm-23.46-5.9c.03-2.12.8-3.87 2.37-5.28 1.63-1.5 3.53-2.2 5.75-2.2 2.2 0 4.12.74 5.7 2.24 1.54 1.42 2.32 3.2 2.32 5.33v5.56H599.7zm22.1 30.95H593.8v-23.7h28.03z" stroke="#fff" stroke-opacity="0" fill="#fff"/><path d="M607 1283.54v6.25h1.62v-6.24c2.12-.4 3.62-2.2 3.63-4.36 0-2.43-1.98-4.4-4.42-4.42-2.2-.03-4.05 1.5-4.42 3.67-.4 2.4 1.2 4.7 3.6 5.1zm.83-7.16c.8 0 1.45.27 2 .83.55.56.83 1.22.82 2 0 1.55-1.2 2.8-2.75 2.83h-.07c-1.55.12-2.92-1.05-3.03-2.6-.12-1.58 1.05-2.94 2.6-3.05h.43z" stroke="#fff" stroke-opacity="0" fill="#fff"/><use xlink:href="#f" transform="matrix(1,0,0,1,650.8171559946711,1266.2339369723024) translate(0 14.4)"/><use xlink:href="#g" transform="matrix(1,0,0,1,650.8171559946711,1266.2339369723024) translate(60.9 14.4)"/><use xlink:href="#h" transform="matrix(1,0,0,1,650.8171559946711,1266.2339369723024) translate(122.9 14.4)"/><use xlink:href="#i" transform="matrix(1,0,0,1,650.8171559946711,1266.2339369723024) translate(133.85 14.4)"/><path d="M579.82 629.7a6 6 0 0 1 6-6h332a6 6 0 0 1 6 6v547.48a6 6 0 0 1-6 6h-332a6 6 0 0 1-6-6z" fill="#248814" fill-opacity=".13"/><path d="M579.82 623.7h56v56h-56v-56z" stroke="#fff" stroke-opacity="0" fill="#248814"/><path d="M623.2 645.87c-.16-.17-.34-.25-.56-.25h-5.15v-5.58c-.04-2.54-.98-4.7-2.85-6.4-1.9-1.83-4.15-2.75-6.77-2.75-2.65 0-4.9.82-6.8 2.6-1.9 1.72-2.87 3.88-2.9 6.42v5.65h-5.15c-.25 0-.44.1-.6.25-.15.17-.2.34-.2.6v25.28c0 .42.33.8.8.8h29.58c.47 0 .82-.38.82-.8v-25.3c0-.2-.06-.37-.22-.53zm-23.46-5.9c.03-2.13.8-3.88 2.37-5.3 1.63-1.5 3.53-2.2 5.75-2.2 2.2 0 4.12.75 5.7 2.25 1.54 1.4 2.32 3.2 2.32 5.32v5.58H599.7zm22.1 30.94H593.8v-23.7h28.03z" stroke="#fff" stroke-opacity="0" fill="#fff"/><path d="M607 661v6.24h1.62V661c2.12-.38 3.62-2.18 3.63-4.34 0-2.43-1.98-4.4-4.42-4.43-2.2-.03-4.05 1.5-4.42 3.68-.4 2.4 1.2 4.7 3.6 5.1zm.83-7.16c.8 0 1.45.27 2 .82.55.56.83 1.22.82 2 0 1.55-1.2 2.8-2.75 2.82h-.07c-1.55.12-2.92-1.05-3.03-2.6-.12-1.57 1.05-2.94 2.6-3.04.16-.02.28-.02.43 0z" stroke="#fff" stroke-opacity="0" fill="#fff"/><use xlink:href="#j" transform="matrix(1,0,0,1,650.8171559946711,643.6901526539862) translate(0 14.4)"/><use xlink:href="#k" transform="matrix(1,0,0,1,650.8171559946711,643.6901526539862) translate(53.900000000000006 14.4)"/><use xlink:href="#l" transform="matrix(1,0,0,1,650.8171559946711,643.6901526539862) translate(115.9 14.4)"/><use xlink:href="#m" transform="matrix(1,0,0,1,650.8171559946711,643.6901526539862) translate(126.85000000000001 14.4)"/><path d="M1315.7 629.7a6 6 0 0 1 6-6h366.1a6 6 0 0 1 6 6v547.48a6 6 0 0 1-6 6h-366.1a6 6 0 0 1-6-6z" fill="#248814" fill-opacity=".13"/><path d="M1315.7 623.7h56v56h-56v-56z" stroke="#fff" stroke-opacity="0" fill="#248814"/><path d="M1359.08 645.87c-.16-.17-.34-.25-.56-.25h-5.15v-5.58c-.03-2.54-.97-4.7-2.84-6.4-1.9-1.83-4.15-2.75-6.77-2.75-2.65 0-4.9.82-6.8 2.6-1.9 1.72-2.87 3.88-2.9 6.42v5.65h-5.15c-.24 0-.43.1-.58.25-.16.17-.22.34-.22.6v25.28c0 .42.34.8.8.8h29.6c.45 0 .8-.38.8-.8v-25.3c0-.2-.07-.37-.22-.53zm-23.46-5.9c.03-2.13.8-3.88 2.37-5.3 1.6-1.5 3.5-2.2 5.73-2.2 2.2 0 4.12.75 5.7 2.25 1.54 1.4 2.32 3.2 2.32 5.32v5.58h-16.17zm22.1 30.94h-28.03v-23.7h28z" stroke="#fff" stroke-opacity="0" fill="#fff"/><path d="M1342.9 661v6.24h1.6V661c2.12-.38 3.62-2.18 3.63-4.34 0-2.43-1.98-4.4-4.42-4.43-2.2-.03-4.04 1.5-4.4 3.68-.42 2.4 1.2 4.7 3.6 5.1zm.8-7.16c.8 0 1.46.27 2.02.82.54.56.82 1.22.8 2 .02 1.55-1.2 2.8-2.74 2.82h-.07c-1.55.12-2.9-1.05-3.02-2.6-.12-1.57 1.05-2.94 2.6-3.04.16-.02.28-.02.43 0z" stroke="#fff" stroke-opacity="0" fill="#fff"/><use xlink:href="#j" transform="matrix(1,0,0,1,1386.696662707908,643.6901526539862) translate(0 14.4)"/><use xlink:href="#k" transform="matrix(1,0,0,1,1386.696662707908,643.6901526539862) translate(53.900000000000006 14.4)"/><use xlink:href="#l" transform="matrix(1,0,0,1,1386.696662707908,643.6901526539862) translate(115.9 14.4)"/><use xlink:href="#n" transform="matrix(1,0,0,1,1386.696662707908,643.6901526539862) translate(126.85000000000001 14.4)"/><path d="M1315.7 1252.23a6 6 0 0 1 6-6h366.1a6 6 0 0 1 6 6v604.33a6 6 0 0 1-6 6h-366.1a6 6 0 0 1-6-6z" fill="#147eba" fill-opacity=".13"/><path d="M1315.7 1246.23h56v56h-56v-56z" stroke="#fff" stroke-opacity="0" fill="#147eba"/><path d="M1359.08 1268.4c-.16-.16-.34-.24-.56-.24h-5.15v-5.57c-.03-2.55-.97-4.72-2.84-6.42-1.9-1.83-4.15-2.75-6.77-2.75-2.65 0-4.9.84-6.8 2.62-1.9 1.7-2.87 3.87-2.9 6.4v5.67h-5.15c-.24 0-.43.08-.58.25-.16.16-.22.33-.22.58v25.3c0 .4.34.78.8.78h29.6c.45 0 .8-.37.8-.8v-25.28c0-.2-.07-.37-.22-.54zm-23.46-5.9c.03-2.12.8-3.87 2.37-5.28 1.6-1.5 3.5-2.2 5.73-2.2 2.2 0 4.12.74 5.7 2.24 1.54 1.42 2.32 3.2 2.32 5.33v5.56h-16.17zm22.1 30.95h-28.03v-23.7h28z" stroke="#fff" stroke-opacity="0" fill="#fff"/><path d="M1342.9 1283.54v6.25h1.6v-6.24c2.12-.4 3.62-2.2 3.63-4.36 0-2.43-1.98-4.4-4.42-4.42-2.2-.03-4.04 1.5-4.4 3.67-.42 2.4 1.2 4.7 3.6 5.1zm.8-7.16c.8 0 1.46.27 2.02.83.54.56.82 1.22.8 2 .02 1.55-1.2 2.8-2.74 2.83h-.07c-1.55.12-2.9-1.05-3.02-2.6-.12-1.58 1.05-2.94 2.6-3.05h.43z" stroke="#fff" stroke-opacity="0" fill="#fff"/><use xlink:href="#f" transform="matrix(1,0,0,1,1386.6966627079078,1266.2339369723024) translate(0 14.4)"/><use xlink:href="#g" transform="matrix(1,0,0,1,1386.6966627079078,1266.2339369723024) translate(60.9 14.4)"/><use xlink:href="#h" transform="matrix(1,0,0,1,1386.6966627079078,1266.2339369723024) translate(122.9 14.4)"/><use xlink:href="#o" transform="matrix(1,0,0,1,1386.6966627079078,1266.2339369723024) translate(133.85 14.4)"/><path d="M152.3 316.85a6 6 0 0 1 6-6H1934a6 6 0 0 1 6 6V2394a6 6 0 0 1-6 6H158.3a6 6 0 0 1-6-6z" stroke="#232f3e" fill="#fff" fill-opacity="0"/><path d="M152.3 310.85h56v56h-56v-56z" stroke="#fff" stroke-opacity="0" fill="#232f3e"/><path d="M193.2 352.06h-25.02c-4.12.06-7.56-3.08-7.88-7.2v-.63c-.16-3.4 1.96-6.38 5.24-7.36v-.66c.12-4.2 2.44-7.74 6.24-9.56 4.12-1.85 8.72-.95 11.8 2.32 1.08 1.08 1.84 2.2 2.44 3.6 1.2-1.02 2.73-1.33 4.25-.9 2.24.78 3.68 2.73 3.76 5.08 3.68.66 6.32 3.8 6.28 7.57 0 7.08-7.03 7.74-7.1 7.76zm-26.7-13.87c-2.84.6-4.76 3.13-4.6 6.03v.53c.28 3.32 3.08 5.83 6.4 5.75h24.97c3.04-.28 5.4-2.63 5.68-5.7.28-3.42-2.24-6.48-5.68-6.77-.44-.05-.72-.45-.64-.87.08-1.84-1-3.45-2.72-4.14-1.3-.37-2.63.13-3.44 1.24-.2.24-.44.37-.76.32-.28-.06-.48-.24-.6-.5-.6-1.6-1.4-2.85-2.6-4.04-2.68-2.8-6.6-3.6-10.12-2-3.24 1.6-5.2 4.64-5.32 8.25-.04.4-.04.73 0 1.13.04.4-.2.76-.6.84z" stroke="#fff" stroke-opacity="0" fill="#fff"/><use xlink:href="#p" transform="matrix(1,0,0,1,223.30783202522957,330.84828035924454) translate(0 14.4)"/><use xlink:href="#q" transform="matrix(1,0,0,1,223.30783202522957,330.84828035924454) translate(45.3 14.4)"/><path d="M480 1626a6 6 0 0 1 6-6h1268a6 6 0 0 1 6 6v192.1a6 6 0 0 1-6 6H486a6 6 0 0 1-6-6z" stroke="#bfbfbf" fill="#f0f0f0" fill-opacity=".7"/><path d="M480 1344.3a6 6 0 0 1 6-6h1268a6 6 0 0 1 6 6v211.8a6 6 0 0 1-6 6H486a6 6 0 0 1-6-6z" fill="#fff" fill-opacity="0"/><path d="M483.08 1339.07l.2-.12.87-.36.9-.23h2m4 0h4m3.98 0h4m3.98 0h4m4 0h3.98m4 0h3.98m4 0h3.98m4 0h3.98m4 0h3.98m4 0h3.98m4 0h3.98m4 0h3.98m4 0h4m3.98 0h4m3.98 0h4m3.98 0h4m3.98 0h4m3.98 0h4m3.98 0h4m3.98 0h4m3.98 0h4m3.98 0h4m3.98 0h4m3.98 0h4m3.98 0h4m3.98 0h4m4 0h3.98m4 0h3.98m4 0h3.98m4 0h3.98m4 0h3.98m4 0h3.98m4 0h3.98m4 0h3.98m4 0h3.98m4 0h3.98m4-.02h3.98m4 0h3.98m4 0h3.98m4 0h4m3.98 0h4m3.98 0h4m3.98 0h4m3.98 0h4m3.98 0h4m3.98 0h4m3.98 0h4m3.98 0h4m3.98 0h4m3.98 0h4m3.98 0h4m3.98 0h4m3.98 0h4m4 0h3.98m4 0H918m4 0H926m4 0h3.98m4 0h3.98m4 0h3.98m4 0h3.98m4 0h3.98m4 0h3.98m4 0h3.98m4 0h3.98m4 0h3.98m4 0h4m3.98 0h4m3.98 0h4m3.98 0h4m3.98 0h4m3.98 0h4m3.98 0h4m3.98 0h4m3.98 0h4m3.98 0h4m3.98 0h4m3.98 0h4m3.98 0h4m3.98 0h4m4-.02h3.98m4 0h3.98m4 0h3.98m4 0h3.98m4 0h3.98m4 0h3.98m4 0h3.98m4 0h3.98m4 0h3.98m4 0h3.98m4 0h3.98m4 0h3.98m4 0h3.98m4 0h4m3.98 0h4m3.98 0h4m3.98 0h4m3.98 0h4m3.98 0h4m3.98 0h4m3.98 0h4m3.98 0h4m3.98 0h4m3.98 0h4m3.98 0h4m3.98 0h4m3.98 0h4m4 0h3.98m4 0h3.98m4 0h3.98m4 0h3.98m4 0h3.98m4 0h3.98m4 0h3.98m4 0h3.98m4 0h3.98m4 0h3.98m4 0h3.98m4 0h3.98m4 0h3.98m4 0h4m3.98 0h4m3.98 0h4m3.98-.02h4m3.98 0h4m3.98 0h4m3.98 0h4m3.98 0h4m3.98 0h4m3.98 0h4m3.98 0h4m3.98 0h4m3.98 0h4m3.98 0h4m4 0h3.98m4 0h3.98m4 0h3.98m4 0h3.98m4 0h3.98m4 0h3.98m4 0h3.98m4 0h3.98m4 0h3.98m4 0h3.98m4 0h3.98m4 0h3.98m4 0h3.98m4 0h4m3.98 0h4m3.98 0h4m3.98 0h4m3.98 0h4m3.98 0h4m3.98 0h4m3.98 0h4m3.98 0h4m3.98 0h4m3.98 0h4m3.98 0h4m3.98 0h4m3.98 0h2l.94.07.9.22.23.08m3.15 2.7l.13.2.36.86.23.92v1.97m0 3.94v3.94m0 3.95v3.94m0 3.93v3.94m0 3.94v3.95m0 3.94v3.93m0 3.94v3.94m0 3.95l.02 3.94m0 3.93v3.94m0 3.94v3.95m0 3.94v3.93m0 3.94v3.94m0 3.95v3.94m0 3.93v3.94m0 3.94l.02 3.95m0 3.94v3.93m0 3.94v3.94m0 3.95v3.94m0 3.93v3.94m0 3.93v3.94m0 3.94v3.94m0 3.94v3.94m.02 3.94v3.94m0 3.94v3.94m0 3.94v3.94m0 3.94v3.94m0 3.94v3.94m0 3.94v1.97l-.07.95-.22.92-.08.2m-2.7 3.17l-.2.12-.87.36-.9.22h-2m-4 0h-4m-3.98 0h-4m-3.98 0h-4m-4 0h-3.98m-4 0h-3.98m-4 0h-3.98m-4 0h-3.98m-4 0h-3.98m-4 0h-3.98m-4 0h-3.98m-4 0h-3.98m-4 0h-4m-3.98 0h-4m-3.98 0h-4m-3.98 0h-4m-3.98 0h-4m-3.98 0h-4m-3.98 0h-4m-3.98 0h-4m-3.98 0h-4m-3.98 0h-4m-3.98 0h-4m-3.98 0h-4m-3.98 0h-4m-3.98 0h-4m-4 0h-3.98m-4 0h-3.98m-4 0h-3.98m-4 0h-3.98m-4 0h-3.98m-4 0h-3.98m-4 0h-3.98m-4 0h-3.98m-4 0l-3.98.02m-4 0h-3.98m-4 0h-3.98m-4 0h-3.98m-4 0h-3.98m-4 0h-4m-3.98 0h-4m-3.98 0h-4m-3.98 0h-4m-3.98 0h-4m-3.98 0h-4m-3.98 0h-4m-3.98 0h-4m-3.98 0h-4m-3.98 0h-4m-3.98 0h-4m-3.98 0h-4m-3.98 0h-4m-3.98 0h-4m-4 0h-3.98m-4 0H1322m-4 0H1314m-4 0h-3.98m-4 0h-3.98m-4 0h-3.98m-4 0h-3.98m-4 0h-3.98m-4 0h-3.98m-4 0h-3.98m-4 0h-3.98m-4 0h-3.98m-4 0h-4m-3.98 0h-4m-3.98 0h-4m-3.98 0h-4m-3.98 0h-4m-3.98 0h-4m-3.98 0h-4m-3.98 0h-4m-3.98 0h-4m-3.98 0h-4m-3.98 0h-4m-3.98 0h-4m-3.98 0l-4 .02m-3.98 0h-4m-4 0h-3.98m-4 0h-3.98m-4 0h-3.98m-4 0h-3.98m-4 0h-3.98m-4 0h-3.98m-4 0h-3.98m-4 0h-3.98m-4 0h-3.98m-4 0h-3.98m-4 0h-3.98m-4 0h-3.98m-4 0h-3.98m-4 0h-4m-3.98 0h-4m-3.98 0h-4m-3.98 0h-4m-3.98 0h-4m-3.98 0h-4m-3.98 0h-4m-3.98 0h-4m-3.98 0h-4m-3.98 0h-4m-3.98 0h-4m-3.98 0h-4m-3.98 0h-4m-3.98 0h-4m-4 0H907m-4 0H899m-4 0h-3.98m-4 0h-3.98m-4 0h-3.98m-4 0h-3.98m-4 0h-3.98m-4 0h-3.98m-4 0h-3.98m-4 0h-3.98m-4 0h-3.98m-4 0h-3.98m-4 0h-3.98m-4 0h-4m-3.98 0l-4 .02m-3.98 0h-4m-3.98 0h-4m-3.98 0h-4m-3.98 0h-4m-3.98 0h-4m-3.98 0h-4m-3.98 0h-4m-3.98 0h-4m-3.98 0h-4m-3.98 0h-4m-3.98 0h-4m-3.98 0h-4m-4 0h-3.98m-4 0h-3.98m-4 0h-3.98m-4 0h-3.98m-4 0h-3.98m-4 0h-3.98m-4 0h-3.98m-4 0h-3.98m-4 0h-3.98m-4 0h-3.98m-4 0h-3.98m-4 0h-3.98m-4 0h-3.98m-4 0h-4m-3.98 0h-4m-3.98 0h-4m-3.98 0h-4m-3.98 0h-4m-3.98 0h-4m-3.98 0h-4m-3.98 0h-4m-3.98 0h-4m-3.98 0h-4m-3.98 0h-4m-3.98 0h-4m-3.98 0h-4m-3.98 0h-2l-.94-.06-.9-.22-.23-.1m-3.15-2.68l-.13-.2-.36-.87-.23-.92v-1.97m0-3.94v-3.94m0-3.94v-3.94m0-3.94v-3.94m0-3.94v-3.94m0-3.94v-3.94m0-3.94v-3.94m0-3.94l-.02-3.94m0-3.94v-3.94m0-3.94v-3.94m0-3.94v-3.94m0-3.94v-3.94m0-3.94v-3.94m0-3.94v-3.94m0-3.94l-.02-3.94m0-3.94v-3.93m0-3.95V1429m0-3.93v-3.94m0-3.94v-3.95m0-3.94v-3.93m0-3.94v-3.94m0-3.95v-3.94m-.02-3.93v-3.94m0-3.94v-3.95m0-3.94v-3.93m0-3.94v-3.94m0-3.95v-3.94m0-3.93v-1.97l.07-.94.22-.92.08-.2" stroke="#d86613" fill="none"/><path d="M480 1338.3h56v56h-56v-56z" stroke="#fff" stroke-opacity="0" stroke-width="2" fill="#d86613"/><path d="M507.83 1386.4c-.13 0-.27-.03-.37-.1l-17-9.8c-.27-.15-.4-.4-.4-.68v-19.84c0-.3.13-.53.4-.7l15.64-9c.3-.25.78-.13 1.02.2.1.16.14.32.14.48v8.6c0 .25-.14.5-.38.66l-7.83 4.47v10.4l8.82 5.1 7.7-4.48c.23-.16.5-.16.74 0l7.4 4.27c.28.1.4.35.4.67 0 .28-.12.52-.4.64l-15.5 9c-.1.07-.23.1-.37.1zm-16.24-11.1l16.64 9.62 14.3-8.3-5.95-3.4-7.95 4.58c-.27.12-.54.12-.82 0l-9.9-5.72c-.28-.16-.4-.4-.4-.68v-11.12c0-.28.12-.52.4-.68l7.8-4.47v-6.84l-14.17 8.2z" stroke="#fff" stroke-opacity="0" stroke-width="2" fill="#fff"/><path d="M525.13 1374.88c-.15 0-.27-.02-.4-.1l-7.4-4.28c-.26-.14-.4-.37-.4-.7v-9.02l-7.8-4.5c-.27-.14-.4-.4-.4-.7V1347c0-.3.13-.55.4-.66.2-.15.5-.15.73 0l15.7 9c.24.14.38.4.38.68v18.03c0 .32-.14.55-.4.7-.13.08-.25.13-.4.13zm-6.68-5.56l5.98 3.44v-16.25l-14.2-8.2v6.8l7.84 4.56c.26.15.42.38.4.7z" stroke="#fff" stroke-opacity="0" stroke-width="2" fill="#fff"/><use xlink:href="#r" transform="matrix(1,0,0,1,551,1358.297534411738) translate(0 14.4)"/><use xlink:href="#s" transform="matrix(1,0,0,1,551,1358.297534411738) translate(41.95 14.4)"/><use xlink:href="#t" transform="matrix(1,0,0,1,551,1358.297534411738) translate(103.80000000000001 14.4)"/><use xlink:href="#u" transform="matrix(1,0,0,1,551,1358.297534411738) translate(191.65000000000003 14.4)"/><use xlink:href="#v" transform="matrix(1,0,0,1,551,1358.297534411738) translate(233.60000000000002 14.4)"/><use xlink:href="#w" transform="matrix(1,0,0,1,551,1358.297534411738) translate(297.5 14.4)"/><use xlink:href="#x" transform="matrix(1,0,0,1,551,1358.297534411738) translate(351.5 14.4)"/><path d="M1122.67 600c-22.08 0-40-17.92-40-40s17.92-40 40-40 40 17.92 40 40-17.92 40-40 40zm0-76.56c-20.24 0-36.56 16.32-36.56 36.56 0 20.24 16.33 36.56 36.57 36.56 20.24 0 36.56-16.32 36.56-36.56 0-20.24-16.32-36.56-36.56-36.56z" stroke="#fff" stroke-opacity="0" fill="#693cc5"/><path d="M1141.8 584.03h-6.37c-.96 0-1.7-.75-1.7-1.7v-33c-3.47-1.8-6.77-2.6-10.65-2.7-4.25.1-7.8 1.04-11.55 3.07v32.63c0 .95-.75 1.7-1.67 1.7h-6.33c-.96 0-1.7-.75-1.7-1.7V545.2c0-.5.2-.93.57-1.26 6.1-5 12.84-7.32 20.68-7.13 7.43-.14 13.8 1.94 19.77 6.33.46.33.67.8.67 1.33v37.87c0 .95-.75 1.7-1.7 1.7zm-4.66-3.4h2.96V545.3c-5.2-3.58-10.68-5.2-17.02-5.1-6.7-.18-12.5 1.7-17.84 5.77v34.66h2.9V548.6c0-.65.35-1.22.93-1.5 4.5-2.55 8.84-3.78 14-3.87 4.73.14 8.73 1.18 12.9 3.4h.17c.62.28 1 .85 1 1.56z" stroke="#fff" stroke-opacity="0" fill="#693cc5"/><use xlink:href="#y" transform="matrix(1,0,0,1,1052.6666666667052,609) translate(32.376543209876544 17.77777777777778)"/><use xlink:href="#z" transform="matrix(1,0,0,1,1052.6666666667052,609) translate(28.672839506172842 44.44444444444444)"/><path d="M751.82 746.94c-17.3 0-31.34-14.04-31.34-31.33 0-17.3 14.04-31.33 31.34-31.33s31.33 14.04 31.33 31.34-14.04 31.34-31.33 31.34zm0-59.97c-15.86 0-28.64 12.78-28.64 28.64 0 15.86 12.78 28.64 28.64 28.64 15.85 0 28.64-12.78 28.64-28.63s-12.8-28.63-28.64-28.63z" stroke="#fff" stroke-opacity="0" fill="#693cc5"/><path d="M755.57 733.2h-11v-2.7h9.67v-27.3h-9.66v-2.67h11c.73 0 1.32.58 1.32 1.34v29.98c0 .75-.6 1.34-1.33 1.34z" stroke="#fff" stroke-opacity="0" fill="#693cc5"/><path d="M744.3 715.53h23.76v2.66H744.3v-2.67zM735.56 708.2c-.2 0-.38-.05-.57-.15-.48-.2-.77-.67-.77-1.2v-10c0-.52.3-.96.76-1.2.46-.22 1-.17 1.4.16l6.24 5.02c.33.26.5.62.5 1.04 0 .42-.17.78-.5 1.04l-6.23 5c-.24.2-.52.3-.84.3zm1.34-8.57v4.46l2.78-2.24zM735.56 723.2c-.2 0-.38-.05-.57-.15-.48-.2-.77-.67-.77-1.2v-10c0-.52.3-.96.76-1.2.46-.22 1-.17 1.4.16l6.24 5.02c.33.26.5.62.5 1.04 0 .42-.17.78-.5 1.04l-6.23 5c-.24.2-.52.3-.84.3zm1.34-8.57v4.46l2.78-2.24z" stroke="#fff" stroke-opacity="0" fill="#693cc5"/><path d="M769.3 724.43c-.17 0-.32-.03-.5-.1-.5-.2-.82-.67-.82-1.23v-12.5c0-.73.6-1.33 1.33-1.33.37 0 .7.13.96.4l6.25 6.24c.52.54.52 1.37 0 1.9l-6.24 6.25c-.27.26-.58.38-.95.38zm1.34-10.66v6.07l3.05-3.04zM735.57 736.94c-.22 0-.4-.04-.58-.14-.48-.22-.77-.67-.77-1.2v-10c0-.74.6-1.33 1.33-1.33.32 0 .6.1.85.3l6.24 5c.57.45.67 1.3.2 1.87-.05.08-.12.14-.2.2l-6.23 5c-.24.2-.52.3-.83.3zm1.33-8.57v4.46l2.78-2.23z" stroke="#fff" stroke-opacity="0" fill="#693cc5"/><use xlink:href="#A" transform="matrix(1,0,0,1,690.4838226613377,755.9394964859684) translate(40.388888888888886 17.77777777777778)"/><use xlink:href="#z" transform="matrix(1,0,0,1,690.4838226613377,755.9394964859684) translate(20.172839506172842 44.44444444444444)"/><path d="M1122.66 257.72V519.5" stroke="#3a414a" fill="none"/><path d="M1123.16 257.74h-1v-.52h1zM1123.16 520.03l-.5-.03-.5.02v-.53h1z" stroke="#3a414a" stroke-width=".05" fill="#3a414a"/><path d="M212.7 1120h120v120h-120v-120z" stroke="#fff" stroke-opacity="0" stroke-width="2" fill="#d86613"/><path d="M307.9 1168.12v32.7l-28.83 16.63v-12.4l16.02-9.23c.9-.53 1.43-1.3 1.57-2.32.04-.48.04-.83 0-1.25v-18.23l11.23-6.43m2.25-4.78c-.17 0-.3 0-.45.12l-15.32 8.82c-.28.18-.88.47-.88.83V1193l-17.14 9.9c-.28.17-.46.47-.46.83v17.57c0 .54.43.95.96.95.17 0 .3-.06.45-.12l33.35-19.18c.28-.18.45-.47.45-.83v-38.48-.06c0-.48-.42-.9-.95-.9z" stroke="#fff" stroke-opacity="0" stroke-width="2" fill="#fff"/><path d="M270.17 1223.9c-.45 0-.9-.08-1.27-.35l-33.34-19.14c-.82-.52-1.27-1.3-1.27-2.2v-42.4c0-.98.44-1.77 1.26-2.2l36.64-21.18c.83-.43 1.73-.43 2.55 0l33.33 19.24c.83.44 1.28 1.23 1.28 2.2 0 .87-.45 1.66-1.28 2.2l-35.35 20.46v40.84c0 .96-.53 1.75-1.28 2.2-.45.26-.83.34-1.28.34zm-32.65-22.13l31.98 18.45v-40.06c0-.96.45-1.75 1.27-2.28l34.7-20.02-32-18.45-35.95 20.83zm35.66-62.53zm.67 0z" stroke="#fff" stroke-opacity="0" stroke-width="2" fill="#fff"/><use xlink:href="#B" transform="matrix(1,0,0,1,182.688670293629,1249) translate(6.203703703703695 17.77777777777778)"/><use xlink:href="#C" transform="matrix(1,0,0,1,182.688670293629,1249) translate(77.68518518518516 17.77777777777778)"/><use xlink:href="#D" transform="matrix(1,0,0,1,182.688670293629,1249) translate(49.35185185185185 44.44444444444444)"/><path d="M212.7 1352.54h120v120h-120v-120z" stroke="#fff" stroke-opacity="0" stroke-width="2" fill="#3f8624"/><path d="M310.98 1416.6c-.46-2.48-3.3-4.24-5.3-5.53-.6-.4-2.3-1.04-2.45-1.6 0-.4 0-.8.16-1.2l1.6-11.46 1.38-10.16c.38-3.04-1.08-5.13-3.6-6.9-5.14-3.6-11.9-5.04-17.95-6-7.97-1.28-14.95-1.52-23-.72-7.28.48-13.34 1.92-20.08 4.8-3.38 1.6-7.9 4.1-7.3 8.42 1.54 12.98 3.46 25.96 5.23 38.93.76 5.93 1.6 11.86 2.37 17.8.3 2.47 1.7 4.4 4 5.36 4.9 2.64 11.03 3.44 16.63 3.92 7.74.72 14.33.48 22-.96 4.6-.8 13.2-2.25 13.95-8.02.92-7.13 1.92-14.26 2.84-21.4l.38-2.15c2.6.64 10.05 2 9.13-3.13zm-40.64-40.86c9.66 0 20.63 1.13 29.2 5.85 1.4.7 4.46 2.32 3.54 4.32-.92 1.92-3.83 2.88-5.6 3.6-2.6.97-4.98 1.6-7.74 2.17-11.96 2.4-22.54 2.63-34.65.7-5.46-.55-9.98-1.9-14.9-4.32-1.14-.72-3.06-1.84-2.52-3.44.4-.88 1-1.52 1.84-2 3.76-2.4 7.2-3.85 11.58-4.65 6.6-1.6 12.42-2.34 19.24-2.26zm25.15 67.46c-.32 1.84-3.38 2.8-4.84 3.28-3.22 1.13-6.06 1.77-9.43 2.17-7.44.96-13.88.96-21.4 0-4.67-.4-8.58-1.44-12.8-3.53-1.14-.48-1.83-1.52-1.9-2.72-1.62-12.74-3.38-25.4-5.15-38.05l-1.84-13.78c3.84 2.08 7.36 3.36 11.66 4.08 4.67.96 8.58 1.44 13.34 1.76 9.2.65 17.1.25 26.22-1.43 4.83-.72 8.8-2.08 13.1-4.4l-3.37 25.07c-8.6-2.8-15.65-5.6-23.7-9.53-.38-.15-.7-.3-1-.47-.45-.32-.3-.16-.53-.64-.38-.98-.46-1.62-1.3-2.42-.77-.56-1.6-.8-2.53-.72-2 .08-3.53 1.84-3.38 3.85.16 1.93 1.92 3.45 3.9 3.3.55-.1 1-.25 1.62-.5.62-.15.62-.15 1.23.17 8.2 4 15.34 6.97 24 9.86 1.23.4 1.23 0 1.23 1.04-.07.8-.15 1.52-.3 2.32l-1 7.6zm-24.7-37.9c0 .5-.6.4-.76.17-.23-.32.76-.72.76-.16zm31.5 11.22l.47-3.52c1.6.96 4.3 2.32 5.06 4.08-1.6.64-4.06-.16-5.52-.56z" stroke="#fff" stroke-opacity="0" stroke-width="2" fill="#fff"/><use xlink:href="#E" transform="matrix(1,0,0,1,182.688670293629,1481.5431343534528) translate(12.345679012345684 17.77777777777778)"/><use xlink:href="#F" transform="matrix(1,0,0,1,182.688670293629,1481.5431343534528) translate(99.93827160493828 17.77777777777778)"/><use xlink:href="#G" transform="matrix(1,0,0,1,182.688670293629,1481.5431343534528) translate(11.080246913580254 44.44444444444444)"/><use xlink:href="#H" transform="matrix(1,0,0,1,182.688670293629,1481.5431343534528) translate(94.96913580246914 44.44444444444444)"/><use xlink:href="#I" transform="matrix(1,0,0,1,182.688670293629,1481.5431343534528) translate(69.07407407407408 71.11111111111111)"/><path d="M1122.67 826.94c-22.08 0-40-17.92-40-40s17.92-40 40-40 40 17.92 40 40-17.92 40-40 40zm0-76.8c-20.32 0-36.8 16.48-36.8 36.8 0 20.32 16.48 36.8 36.8 36.8 20.32 0 36.8-16.48 36.8-36.8 0-20.32-16.48-36.8-36.8-36.8z" stroke="#fff" stroke-opacity="0" stroke-width="3" fill="#693cc5"/><path d="M1146.52 798.13h-3.05v-6.4c0-.9-.7-1.6-1.58-1.6h-4.85v-6.38c0-.9-.7-1.6-1.58-1.6h-11.2v-4.8h11.2c.87 0 1.58-.75 1.58-1.6v-14.42c0-.9-.7-1.6-1.58-1.6h-25.6c-.88 0-1.6.7-1.6 1.6v14.43c0 .84.72 1.6 1.6 1.6h11.2v4.8h-11.2c-.88 0-1.6.7-1.6 1.6v6.38h-4.78c-.93 0-1.64.7-1.64 1.6v6.4h-3.05c-.86 0-1.57.73-1.57 1.58v8.03c0 .9.7 1.6 1.58 1.6h7.85c.92 0 1.63-.7 1.63-1.6v-8.03c0-.85-.7-1.6-1.63-1.6h-1.58v-4.8h8v4.8h-1.58c-.93 0-1.64.75-1.64 1.6v8.03c0 .9.7 1.6 1.63 1.6h7.98c.87 0 1.58-.7 1.58-1.6v-8.03c0-.85-.7-1.6-1.58-1.6h-3.2v-6.4c0-.88-.72-1.58-1.64-1.58h-3.15v-4.8h22.34v4.8h-3.15c-.93 0-1.64.7-1.64 1.6v6.4h-3.2c-.88 0-1.6.73-1.6 1.58v8.03c0 .9.72 1.6 1.6 1.6h7.98c.92 0 1.63-.7 1.63-1.6v-8.03c0-.85-.7-1.6-1.63-1.6h-1.57v-4.8h8v4.8h-1.74c-.87 0-1.58.75-1.58 1.6v8.03c0 .9.7 1.6 1.58 1.6h8.05c.86 0 1.57-.7 1.57-1.6v-8.03-.05c-.05-.85-.76-1.54-1.63-1.54zm-41.45 8h-4.63v-4.78h4.63zm12.78-4.78v4.77h-4.78v-4.77zm-6.36-27.23v-11.16h22.34v11.16zm20.77 32h-4.8v-4.77h4.8zm12.63 0h-4.8v-4.77h4.8z" stroke="#fff" stroke-opacity="0" stroke-width="3" fill="#693cc5"/><use xlink:href="#J" transform="matrix(1,0,0,1,1052.6666666667052,835.9394964859296) translate(15.7716049382716 17.77777777777778)"/><use xlink:href="#K" transform="matrix(1,0,0,1,1052.6666666667052,835.9394964859296) translate(45.308641975308646 44.44444444444444)"/><use xlink:href="#L" transform="matrix(1,0,0,1,1052.6666666667052,835.9394964859296) translate(26.234567901234563 71.11111111111111)"/><path d="M617.88 1005.2H473.93a6 6 0 0 0-6 6v703.96M617.85 1005.2h1.03" stroke="#1071e5" stroke-width="2" fill="none"/><path d="M476.75 1720.4l-14.63-3.3 4.74-7.97z" stroke="#1071e5" stroke-width="2" fill="#1071e5"/><path d="M1167.68 257.22h-12.92v-5.17h12.92c12.43 0 18.4-5.48 18.4-16.76 0-9.66-5.6-15.76-16.82-18-1.22-.23-2.07-1.24-2.07-2.4-.62-9.34-5.98-12.74-10.37-12.74-3.16.08-5.85 1.47-7.8 4.02-.85 1.08-2.43 1.3-3.65.46-.37-.3-.6-.7-.85-1.16-1.6-4.78-3.9-8.4-7.56-11.97-8.16-8.25-19.74-10.5-30.46-5.85-9.62 4.4-15.6 13.28-15.95 23.93 0 1.1.12 2 .24 3.17.1 1.3-.74 2.47-1.96 2.78-5.24 1.3-14.13 5.25-14.13 17.45v1.24c.62 9.2 8.3 15.75 18.4 15.75h12.92v5.18h-12.9c-12.93 0-22.8-8.65-23.53-20.55v-1.62c-.38-10.2 5.96-19.07 15.83-21.85v-1.62c.36-17.75 15.1-31.9 32.9-31.5 8.65.23 16.08 3.4 22.3 9.73 3.17 3.1 5.36 6.26 7.2 10.35 2.67-2.1 5.6-3 9-3.1 6.83 0 14.02 4.87 15.48 15.6 12.32 3.17 19.14 11.13 19.14 22.63-.12 14.22-8.53 22.02-23.76 22.02zm-27.54 0h-19.37v-5.17h19.37z" stroke="#fff" stroke-opacity="0" fill="#232f3e"/><path d="M1147.42 254.78c-.72 0-1.3-.24-1.8-.74l-14.6-14.6 3.65-3.68 12.75 12.68 12.75-12.77 3.64 3.7-14.55 14.55c-.5.56-1.1.85-1.83.86z" stroke="#fff" stroke-opacity="0" fill="#232f3e"/><path d="M1144.83 213.3h5.18v36.45h-5.17V213.3zM1126.2 229.73l-12.75-12.76-12.76 12.76-3.65-3.7 14.56-14.55c1.03-1 2.63-1 3.65 0l14.6 14.56z" stroke="#fff" stroke-opacity="0" fill="#232f3e"/><path d="M1110.86 213.3h5.18v43.77h-5.18V213.3z" stroke="#fff" stroke-opacity="0" fill="#232f3e"/><path d="M1167.66 257.22h-74.54c-12.9 0-22.77-8.64-23.5-20.53v-1.63c-.37-10.27 5.96-19.07 15.83-21.92v-1.63-1.23c.85-12.36 7.92-22.4 19.12-27.5 12.55-5.4 26.3-2.77 35.93 6.96 3.3 3.16 5.48 6.33 7.3 10.34 2.7-2 5.6-3 9.02-3 6.82 0 14 4.85 15.47 15.58 12.4 3.1 19.1 11.12 19.1 22.62-.1 14.13-8.5 21.92-23.74 21.92zm-50.18-71.86c-4.02 0-7.43.7-11.08 2.24-9.62 4.47-15.47 13.35-15.84 23.92 0 1.16 0 2.17.25 3.25.13 1.3-.72 2.54-1.94 2.85-5.24 1.32-14.13 5.17-14.13 17.45v1.4c.5 9.02 8.28 15.5 18.4 15.5h74.53c12.43 0 18.4-5.48 18.4-16.75 0-9.65-5.6-15.74-16.8-17.98-1.23-.23-1.96-1.24-2.08-2.4-.5-9.4-5.97-12.73-10.36-12.73-3.16.08-5.84 1.47-7.8 4.02-.85 1.08-2.43 1.3-3.65.46-.36-.3-.6-.7-.85-1.15-1.58-4.7-3.9-8.42-7.55-11.97-5.36-5.4-11.8-8.1-19.5-8.1z" stroke="#fff" stroke-opacity="0" fill="#fff" fill-opacity="0"/><path d="M779.03 1862.5" stroke="#3a414a" fill="none"/><path stroke="#3a414a" stroke-width=".05" fill="#3a414a"/><path d="M777.42 1862.5l-14.27 4.65v-9.27z" stroke="#3a414a" fill="#3a414a"/><path d="M1122.67 827.44v494" stroke="#3a414a" fill="none"/><path d="M1122.67 826.94l.5-.02v.53h-1v-.54z" stroke="#3a414a" stroke-width=".05" fill="#3a414a"/><path d="M1122.67 1336.22l-4.64-14.27h9.27z" stroke="#3a414a" fill="#3a414a"/><path d="M1122.67 600.5v130.06" stroke="#3a414a" fill="none"/><path d="M1122.67 600l.5-.02v.53h-1v-.53z" stroke="#3a414a" stroke-width=".05" fill="#3a414a"/><path d="M1122.67 745.32l-4.64-14.26h9.27z" stroke="#3a414a" fill="#3a414a"/><path d="M1062.67 1390.2h120v120h-120v-120z" stroke="#fff" stroke-opacity="0" stroke-width="2" fill="#d86613"/><path d="M1102.33 1448.45c.13.13.22.27.4.36.22.23.45.4.72.6l.18.12.8.4.5.23h.36l.4.18c.77.26 1.58.58 2.52.9l1.47.4.77.22c4.2 1.02 7.88 1.47 12.23 1.42 6.58.14 12.18-.93 18.23-3.48 2.6-1.22 4.12-3.58 4.17-6.44v-22.96c0-.98-.54-1.83-1.44-2.28l-19.9-9.24c-.66-.36-1.42-.36-2.1 0l-19.93 9.24c-.9.45-1.43 1.3-1.43 2.28v23.05c0 1.78.58 3.3 1.74 4.7.1.12.2.2.33.3zm8.15.22l-1.34-.4c-.85-.27-1.57-.53-2.24-.76l-.6-.26-.52-.22-.54-.27-.4-.3-.18-.23-.14-.14-.13-.13c-.64-.76-.95-1.56-.95-2.55v-21.08l17.6 8.26v19.57c-3.5-.05-6.45-.45-9.85-1.25zm29.12-1.7c-5.1 2.2-9.8 3.18-15.37 3.22v-19.3l17.6-8.04v20.5c.06 1.6-.8 2.95-2.23 3.62zm-16.93-35.1l17.7 8.26-17.43 7.82-.1-.1-17.2-8z" stroke="#fff" stroke-opacity="0" stroke-width="2" fill="#fff"/><path d="M1150.3 1434.5l-.84 3.06c7.15 2.12 11.65 5.13 11.65 7.84 0 5.3-15.8 11.22-38.43 11.22s-38.44-5.93-38.44-11.22c0-2.7 4.5-5.72 11.65-7.84l-.84-3.07c-8.98 2.63-13.97 6.52-13.97 10.9 0 9.34 21.46 14.4 41.6 14.4 20.13 0 41.6-5.06 41.6-14.4 0-4.38-5-8.25-13.98-10.9zM1150.2 1464.84l-7.44-3.22c-.6-.27-1.2-.27-1.8 0l-7.6 3.28c-.7.36-1.08 1-1.08 1.76v8.25l-7.12-3.1c-.6-.3-1.2-.3-1.8 0l-7.17 3.1v-8.27c0-.8-.44-1.5-1.15-1.8l-7.5-3.2c-.54-.28-1.2-.28-1.8 0l-7.6 3.27c-.7.36-1.08 1-1.08 1.76v9.73c0 .8.43 1.48 1.2 1.8l7.44 3.2h.17c.27.12.5.18.8.18.3 0 .56-.03.77-.18l7.23-3.1v8.25c0 .8.44 1.46 1.14 1.8l7.46 3.2h.1c.28.13.55.2.87.2.28 0 .55-.07.82-.2l7.6-3.27c.7-.36 1.1-1 1.15-1.8v-8.17l7.06 3.1h.22c.27.12.54.18.87.2.27-.02.5-.08.7-.2l7.67-3.2c.7-.32 1.08-1 1.08-1.75v-9.82c0-.8-.43-1.5-1.2-1.8zm-8.36-.15l4.35 1.87-4.1 1.67-4.23-1.82zm-17.6 10.2l4.34 1.86-4.07 1.6-4.23-1.75zm-17.6-10.2l4.34 1.87-4.08 1.6-4.24-1.75zm-6.42 4.17l4.83 2.03v6.74l-4.83-2.06zm8.04 8.74v-6.4l4.78-1.96v6.4zm9.56 1.46l4.84 2.07v6.67l-4.84-2.06zm8 8.77v-6.43l4.83-1.97v6.4zm9.6-18.96l4.8 2.03v6.74l-4.8-2.06zm8 8.77v-6.4l4.83-2v6.4z" stroke="#fff" stroke-opacity="0" stroke-width="2" fill="#fff"/><use xlink:href="#M" transform="matrix(1,0,0,1,1032.6666666667052,1519.2053726504753) translate(23.827160493827165 17.77777777777778)"/><use xlink:href="#N" transform="matrix(1,0,0,1,1032.6666666667052,1519.2053726504753) translate(79.75308641975309 17.77777777777778)"/><path d="M1120 1563.58v37.46" stroke="#1071e5" stroke-width="2" fill="none"/><path d="M1121 1563.6h-2v-1.02h2z" stroke="#1071e5" stroke-width=".05" fill="#1071e5"/><path d="M1120 1616.3l-4.64-14.26h9.28z" stroke="#1071e5" stroke-width="2" fill="#1071e5"/><path d="M1136.32 2150.2c-19.32 0-38.94-5.13-38.94-15v-66.47h6.15v66.48c0 3.02 11.53 8.8 32.8 8.8 21.17 0 32.77-5.86 32.77-8.8v-66.47h6.15v66.48c.08 9.87-19.55 15-38.93 15z" stroke="#fff" stroke-opacity="0" fill="#3b48cc"/><path d="M1117.3 2104.15c-12.84-2.56-19.9-7.27-19.9-13.26h6.16c0 1.34 3.65 4.95 14.97 7.2zM1158.9 2103.35l-1.5-5.94c8.57-2.17 11.78-5.13 11.78-6.48h6.13c0 5.32-5.8 9.76-16.4 12.43zM1136.32 2083.75c-19.33 0-38.97-5.15-38.97-15 0-9.9 19.64-15.08 38.97-15.08 19.4 0 38.96 5.18 38.96 15.07 0 9.86-19.56 15-38.96 15zm0-23.88c-21.2 0-32.8 5.83-32.8 8.87 0 3 11.6 8.84 32.8 8.84 21.2 0 32.8-5.83 32.8-8.84 0-3.04-11.53-8.87-32.8-8.87zM1136.3 2150.2c-19.32 0-38.95-5.15-38.95-15.02V2113c0-1.7 1.4-3.06 3.04-3.06 1.7 0 3.1 1.37 3.1 3.06 0 1.37 3.67 5 14.96 7.25l-1.25 6.16c-5.05-.88-9.18-2.3-13.7-4.74v13.6c0 3.1 11.6 8.86 32.8 8.86 21.27 0 32.8-5.88 32.8-8.86v-13.72c-3.35 1.9-6.47 3.1-10.3 3.94l-1.47-5.96c8.57-2.2 11.77-5.15 11.77-6.52 0-1.7 1.4-3.06 3.1-3.06 1.65 0 3.05 1.37 3.05 3.06v22.18c.08 9.87-19.55 15.02-38.95 15.02zM1080.6 2098.1h-6.15v-8.66c0-1.7 1.38-3.08 3.07-3.08h14.37v6.16h-11.3zM1198.2 2101.17h-17.24V2095h14.18v-2.45h-14.18v-6.16h17.25c1.7 0 3.08 1.37 3.08 3.07v8.65c-.02 1.7-1.38 3.05-3.07 3.05z" stroke="#fff" stroke-opacity="0" fill="#3b48cc"/><path d="M1206.9 2101.17h-25.93V2095h22.84v-44.48c-6.48-2.2-10-9.25-7.8-15.83 1.32-3.9 3.98-6.66 7.8-7.96v-.57h-134.95v.5c5.3 1.53 8.84 6.4 8.7 12 0 5.6-3.4 10.3-8.7 11.93v44.4h22.84v6.17h-25.94c-1.77 0-3.1-1.38-3.1-3.1v-50.15c0-1.7 1.33-3.08 3.1-3.08 3.24-.16 5.75-2.92 5.6-6.17.15-3.25-2.36-6-5.6-6.17-1.77 0-3.1-1.38-3.1-3.08v-6.34c0-1.7 1.33-3.08 3.1-3.08h141.14c1.77 0 3.1 1.38 3.1 3.08v6.34c0 1.7-1.33 3.08-3.1 3.08-3.24.16-5.6 2.92-5.45 6.1-.15 3.23 2.2 6 5.45 6.16 1.77 0 3.1 1.38 3.1 3.08V2098c0 1.7-1.33 3.17-2.95 3.17h-.15z" stroke="#fff" stroke-opacity="0" fill="#3b48cc"/><path d="M1115.06 2052.23h-6.14v-17.48c0-1.7 1.37-3.08 3.07-3.08h20.1c1.7 0 3.06 1.37 3.06 3.08v14.56h-6.14v-11.5h-13.96zM1163.95 2052.23h-6.14v-14.42h-13.97v11.5h-6.15v-14.55c0-1.7 1.37-3.08 3.08-3.08h20.12c1.7 0 3.07 1.37 3.07 3.08zM1189.58 2080.98h-8.63v-6.17h5.56v-36.92h-13.95v17.06h-6.14v-20.22c0-1.67 1.37-3.05 3.08-3.05h20.1c1.7 0 3.07 1.38 3.07 3.05v43.1c.03 1.73-1.3 3.1-3 3.16h-.07zM1091.84 2080.98h-8.58c-1.7 0-3.07-1.38-3.07-3.06v-43.1c0-1.7 1.36-3.1 3.06-3.1h20.1c1.7 0 3.08 1.4 3.08 3.1v20.1h-6.15v-17.1h-13.97v36.95h5.5zM1123.38 2133.08v-40.4h14.87c3.58-.16 6.7.9 9.44 3.24 2.45 2.34 3.67 5.34 3.5 8.73.07 2.55-.56 4.73-2 6.84-1.48 2.1-3.33 3.5-5.76 4.4l10.3 17.22h-7.02l-9.2-16h-7.1v16zm7.04-21.55h6.95c.58.08 1.06.08 1.64 0 3.26-.45 5.54-3.44 5.05-6.72.1-.55.12-1.04.03-1.64-.4-3.2-3.34-5.46-6.53-5.06h-7.13z" stroke="#fff" stroke-opacity="0" fill="#3b48cc"/><path d="M1065.87 2048.92l8.15-5.22v-9.97l-8.15-5.07v-4.83l140.5-.68v6.2l-7.6 4.38v9.97l7.6 5.22v49.8h-140.5z" stroke="#fff" stroke-opacity="0" stroke-width=".54" fill="#fff" fill-opacity="0"/><use xlink:href="#O" transform="matrix(1,0,0,1,1032.6666666667052,2159.20164324791) translate(25.141975308641975 17.77777777777778)"/><use xlink:href="#P" transform="matrix(1,0,0,1,1032.6666666667052,2159.20164324791) translate(149.64814814814815 17.77777777777778)"/><use xlink:href="#Q" transform="matrix(1,0,0,1,1032.6666666667052,2159.20164324791) translate(75.66666666666666 44.44444444444444)"/><path d="M1175.75 2106.6h-.5" stroke="#3a414a" fill="none"/><path d="M1175.76 2107.1h-.5v-1h.5z" stroke="#3a414a" stroke-width=".05" fill="#3a414a"/><path d="M1179.8 2102.03l-6.8 13.36-6.55-6.56z" stroke="#3a414a" fill="#3a414a"/><path d="M1761.46 1450.2h33a6 6 0 0 1 6 6v622.9a6 6 0 0 1-6 6H1228.5" stroke="#1071e5" stroke-width="2" fill="none"/><path d="M1761.5 1451.2h-1.04v-2h1.03z" stroke="#1071e5" stroke-width=".05" fill="#1071e5"/><path d="M1213.23 2085.1l14.27-4.63v9.27z" stroke="#1071e5" stroke-width="2" fill="#1071e5"/><path d="M1511.33 758.44c-17.3 0-31.33-14.04-31.33-31.34s14.04-31.33 31.33-31.33c17.3 0 31.34 14.04 31.34 31.33 0 17.3-14.04 31.34-31.34 31.34zm0-59.98c-15.85 0-28.64 12.8-28.64 28.64 0 15.86 12.78 28.64 28.63 28.64 15.86 0 28.64-12.78 28.64-28.64 0-15.85-12.78-28.64-28.64-28.64z" stroke="#fff" stroke-opacity="0" fill="#693cc5"/><path d="M1515.08 744.7h-11V742h9.67v-27.3h-9.66v-2.68h10.98c.74 0 1.33.6 1.33 1.34v30c0 .74-.58 1.33-1.32 1.33z" stroke="#fff" stroke-opacity="0" fill="#693cc5"/><path d="M1503.83 727.02h23.74v2.67h-23.74V727zM1495.08 719.7c-.2 0-.4-.05-.58-.15-.47-.22-.75-.67-.75-1.2v-10c0-.52.28-.96.75-1.2.48-.22 1-.17 1.42.16l6.24 5c.33.28.5.64.5 1.05 0 .42-.17.8-.5 1.04l-6.24 5c-.25.2-.52.3-.84.3zm1.33-8.58v4.46l2.8-2.23zM1495.08 734.7c-.2 0-.4-.05-.58-.15-.47-.22-.75-.67-.75-1.2v-10c0-.52.28-.96.75-1.2.48-.22 1-.17 1.42.16l6.24 5c.33.28.5.64.5 1.05 0 .42-.17.8-.5 1.04l-6.24 5c-.25.2-.52.3-.84.3zm1.33-8.58v4.46l2.8-2.23z" stroke="#fff" stroke-opacity="0" fill="#693cc5"/><path d="M1528.82 735.93c-.18 0-.33-.03-.5-.1-.5-.2-.83-.67-.83-1.24v-12.5c0-.73.58-1.34 1.32-1.34.37 0 .7.14.96.4l6.25 6.25c.5.54.5 1.37 0 1.9l-6.25 6.25c-.27.26-.58.38-.96.38zm1.34-10.66v6.06l3.04-3.03zM1495.08 748.44c-.2 0-.4-.04-.58-.14-.47-.22-.75-.67-.75-1.2v-10c0-.74.58-1.34 1.32-1.34.33 0 .6.1.85.3l6.24 5c.57.46.67 1.3.2 1.88-.06.07-.12.14-.2.2l-6.24 5c-.25.2-.52.3-.84.3zm1.33-8.57v4.46l2.8-2.23z" stroke="#fff" stroke-opacity="0" fill="#693cc5"/><g><use xlink:href="#R" transform="matrix(1,0,0,1,1450,767.4360868421387) translate(40.388888888888886 17.77777777777778)"/><use xlink:href="#S" transform="matrix(1,0,0,1,1450,767.4360868421387) translate(20.172839506172842 44.44444444444444)"/></g><path d="M780.4 1400c1.55 0 2.75 1.2 2.75 2.76v114.48c0 1.56-1.2 2.76-2.76 2.76h-86.5c-1.55 0-2.75-1.2-2.75-2.76v-114.48c0-1.56 1.2-2.76 2.76-2.76zm-83.73 114.6h80.96v-109.2h-80.96zm9.2-80.52c-1.47 0-2.67-1.2-2.67-2.76v-14.28c0-1.44 1.2-2.76 2.67-2.76h14.44c1.58 0 2.77 1.32 2.77 2.76v14.28c0 1.56-1.2 2.76-2.76 2.76zm0 66.84c-1.47 0-2.67-1.2-2.67-2.76v-14.28c0-1.56 1.2-2.76 2.67-2.76h14.44c1.58 0 2.77 1.2 2.77 2.76v14.28c0 1.56-1.2 2.76-2.76 2.76zm0-33.36c-1.47 0-2.67-1.32-2.67-2.76v-14.4c0-1.44 1.2-2.64 2.67-2.64h14.44c1.58 0 2.77 1.2 2.77 2.64v14.4c0 1.44-1.2 2.76-2.76 2.76zm21.7-40.68v-5.4h43.25v5.4zm0 33.48v-5.52h43.25v5.52zm0 33.36v-5.4h43.25v5.4zm-18.94-65.04h8.92v-8.88h-8.92zm0 33.36h8.92v-8.88h-8.92zm0 33.36h8.92v-8.76h-8.92z" stroke="#000" stroke-opacity="0" fill="#d45b07"/><g><use xlink:href="#T" transform="matrix(1,0,0,1,661.1504893280045,1529) translate(24.074999999999996 14.4)"/><use xlink:href="#U" transform="matrix(1,0,0,1,661.1504893280045,1529) translate(90.975 14.4)"/></g><path d="M1548 1390.2c1.56 0 2.75 1.2 2.75 2.77v114.48c0 1.56-1.2 2.76-2.76 2.76h-86.5c-1.55 0-2.75-1.2-2.75-2.75v-114.48c0-1.56 1.2-2.76 2.76-2.76zm-83.73 114.6h80.96v-109.2h-80.96zm9.2-80.5c-1.47 0-2.66-1.2-2.66-2.77v-14.28c0-1.44 1.2-2.76 2.67-2.76h14.45c1.56 0 2.76 1.3 2.76 2.75v14.28c0 1.56-1.2 2.76-2.76 2.76zm0 66.83c-1.47 0-2.66-1.2-2.66-2.76v-14.28c0-1.57 1.2-2.77 2.67-2.77h14.45c1.56 0 2.76 1.2 2.76 2.76v14.27c0 1.56-1.2 2.76-2.76 2.76zm0-33.36c-1.47 0-2.66-1.32-2.66-2.76v-14.4c0-1.43 1.2-2.63 2.67-2.63h14.45c1.56 0 2.76 1.2 2.76 2.64v14.4c0 1.45-1.2 2.77-2.76 2.77zm21.72-40.68v-5.4h43.23v5.4zm0 33.47v-5.52h43.23v5.52zm0 33.36v-5.4h43.23v5.4zm-18.97-65.04h8.93v-8.9h-8.93zm0 33.35h8.93v-8.88h-8.93zm0 33.36h8.93v-8.75h-8.93z" stroke="#000" stroke-opacity="0" fill="#d45b07"/><g><use xlink:href="#T" transform="matrix(1,0,0,1,1428.7543675885147,1519.2053726504753) translate(24.074999999999996 14.4)"/><use xlink:href="#U" transform="matrix(1,0,0,1,1428.7543675885147,1519.2053726504753) translate(90.975 14.4)"/></g><path d="M700 1660h80v80h-80v-80z" stroke="#fff" stroke-opacity="0" stroke-width="2" fill="#3b48cc"/><path d="M751.7 1690.1c0-3.07-6.08-4.5-11.75-4.5s-11.74 1.43-11.74 4.5c0 .18.04.3.06.47v19.24c-.05 3.24 6.04 4.6 11.74 4.6s11.73-1.42 11.73-4.5v-19.8zm-11.73-2.38c6.2 0 9.6 1.7 9.6 2.4 0 .68-3.36 2.38-9.6 2.38-6.25 0-9.6-1.67-9.6-2.4 0-.68 3.37-2.38 9.6-2.38zm9.6 22.18c0 .7-3.36 2.36-9.6 2.36-6.23 0-9.6-1.67-9.6-2.36v-3.37c2.24 1.24 6.03 1.8 9.6 1.8 3.58 0 7.32-.56 9.6-1.77zm0-6.08c0 .7-3.36 2.4-9.6 2.4-6.25 0-9.6-1.7-9.6-2.4h.03v-4.06c2.26 1.2 6.02 1.78 9.6 1.78 3.57 0 7.3-.57 9.6-1.75zm0-6.8c0 .7-3.36 2.42-9.6 2.42-6.25 0-9.6-1.73-9.6-2.42h.03v-4.14c2.28 1.2 6 1.75 9.6 1.75 3.6 0 7.38-.57 9.6-1.8zM716.97 1724.55H724v2.13h-9.6c-.6 0-1.07-.48-1.07-1.07v-9.6h2.13v7.02l8-8 1.5 1.5zM766.67 1716v9.6c0 .6-.48 1.08-1.07 1.08H756v-2.14h7.03l-7.88-7.9 1.5-1.5 7.9 7.88v-7zM766.67 1674.4v9.6h-2.13v-7.03l-7.88 7.88-1.5-1.5 7.85-7.88h-7v-2.13h9.6c.6 0 1.07.48 1.07 1.07zM724.96 1683.47l-1.5 1.5-8-8v7.02h-2.13v-9.6c0-.6.48-1.08 1.07-1.08h9.6v2.13h-7.03zM723.64 1709.56c-6.52-2.34-10.25-5.94-10.25-9.83 0-3.9 3.72-7.46 10.24-9.82l.72 2c-5.53 2.02-8.84 4.93-8.84 7.83 0 2.9 3.3 5.82 8.84 7.82zM755.77 1709.8l-.7-2.04c5.93-2 9.47-5 9.47-8.03 0-3.03-3.54-6.03-9.46-8.04l.7-2.03c6.9 2.34 10.9 6.02 10.9 10.06 0 4.05-4 7.7-10.9 10.06z" stroke="#fff" stroke-opacity="0" stroke-width="2" fill="#fff"/><g><use xlink:href="#V" transform="matrix(1,0,0,1,670,1749) translate(5.370370370370381 17.77777777777778)"/><use xlink:href="#W" transform="matrix(1,0,0,1,670,1749) translate(58.33333333333334 17.77777777777778)"/><use xlink:href="#X" transform="matrix(1,0,0,1,670,1749) translate(28.02469135802469 44.44444444444444)"/></g><path d="M1458.75 1661.86h80v80h-80v-80z" stroke="#fff" stroke-opacity="0" stroke-width="2" fill="#3b48cc"/><path d="M1510.44 1691.97c0-3.08-6.07-4.52-11.74-4.52-5.66 0-11.73 1.44-11.73 4.52 0 .17.02.3.04.46v19.24c-.03 3.23 6.06 4.58 11.75 4.58 5.72 0 11.74-1.4 11.74-4.5v-19.78zm-11.7-2.4c6.2 0 9.58 1.7 9.58 2.4s-3.36 2.4-9.6 2.4c-6.25 0-9.6-1.68-9.6-2.4 0-.7 3.37-2.4 9.6-2.4zm9.58 22.2c0 .68-3.36 2.35-9.6 2.35-6.23 0-9.6-1.67-9.6-2.36v-3.37c2.25 1.23 6.03 1.8 9.6 1.8 3.58 0 7.32-.57 9.6-1.78zm0-6.1c0 .7-3.36 2.4-9.6 2.4-6.25 0-9.6-1.7-9.6-2.4h.03v-4.05c2.26 1.2 6.03 1.78 9.6 1.78 3.58 0 7.32-.57 9.6-1.75zm0-6.8c0 .7-3.36 2.43-9.6 2.43-6.25 0-9.6-1.73-9.6-2.42h.03v-4.14c2.3 1.2 6 1.75 9.6 1.75 3.6 0 7.4-.58 9.6-1.82zM1475.73 1726.4h7.02v2.14h-9.6c-.6 0-1.06-.48-1.06-1.07v-9.6h2.12v7l8-7.98 1.5 1.5zM1525.42 1717.87v9.6c0 .6-.47 1.07-1.07 1.07h-9.6v-2.14h7.03l-7.88-7.9 1.5-1.5 7.9 7.88v-7zM1525.42 1676.27v9.6h-2.13v-7.04l-7.9 7.88-1.5-1.5 7.87-7.87h-7.02v-2.13h9.6c.6 0 1.07.48 1.07 1.07zM1483.7 1685.33l-1.47 1.5-8-8v7.02h-2.14v-9.6c0-.6.46-1.07 1.06-1.07h9.6v2.13h-7.03zM1482.4 1711.42c-6.53-2.34-10.26-5.94-10.26-9.83 0-3.9 3.73-7.47 10.25-9.83l.72 2c-5.53 2-8.85 4.92-8.85 7.82 0 2.9 3.32 5.8 8.85 7.8zM1514.52 1711.65l-.68-2.03c5.92-2 9.45-5 9.45-8.03 0-3.04-3.54-6.04-9.46-8.05l.68-2.02c6.93 2.34 10.9 6.02 10.9 10.06 0 4.04-3.97 7.7-10.9 10.05z" stroke="#fff" stroke-opacity="0" stroke-width="2" fill="#fff"/><g><use xlink:href="#V" transform="matrix(1,0,0,1,1428.7543675885147,1750.8598452043043) translate(2.7777777777777715 17.77777777777778)"/><use xlink:href="#Y" transform="matrix(1,0,0,1,1428.7543675885147,1750.8598452043043) translate(55.74074074074073 17.77777777777778)"/><use xlink:href="#X" transform="matrix(1,0,0,1,1428.7543675885147,1750.8598452043043) translate(28.02469135802469 44.44444444444444)"/></g><path d="M1082.67 330.87h77.22v77.22h-77.23v-77.23z" stroke="#fff" stroke-opacity="0" fill="#693cc5"/><path d="M1110.77 375.1c1.36.47 2.58.7 4.04.74.92.07 1.73-.15 2.5-.7.58-.55.87-1.24.84-2.05.07-.85-.2-1.6-.8-2.2-.82-.55-1.67-.76-2.64-.68-1.16 0-2.15.07-3.3.2v-1.45l.4-6.36h7.76v1.73h-6l-.28 4.3c.7-.13 1.32-.2 2.06-.2 1.36-.08 2.55.33 3.6 1.22.9.9 1.35 2.04 1.28 3.33.04 1.34-.47 2.5-1.5 3.37-1.18.93-2.48 1.35-3.98 1.3-1.47 0-2.7-.26-4.06-.86zM1127.6 368.9h.37c1.28-.1 2.4.27 3.38 1.1.88.82 1.3 1.88 1.23 3.08.04 1.33-.5 2.47-1.52 3.3-1.2.92-2.52 1.32-4.03 1.25-1.42 0-2.64-.27-3.94-.84v-1.72c1.32.5 2.52.7 3.93.76.93.07 1.74-.17 2.5-.7.6-.55.9-1.26.86-2.07 0-1.72-1.1-2.58-3.25-2.58-.73 0-1.34.02-2.07.1v-1.4l4.47-4.86h-6.23v-1.75h8.64v1.68z" stroke="#fff" stroke-opacity="0" fill="#fff"/><path d="M1121.28 389.04c-.2 0-.37-.03-.53-.15-3.5-2.07-6.8-3.32-10.78-4.12-2.2-.4-9.26-2.06-9.26-7.2 0-2.33.9-3.9 2.06-5.84 1.77-2.63 2.68-5.3 2.8-8.46 0-3.04-.78-5.6-2.47-8.15-.25-.38-.2-.84.08-1.22l1.64-2.05c.33-.38.87-.5 1.32-.23 2.22 1.3 4.36 1.87 6.95 1.9 2.83.05 5.26-.72 7.57-2.4.37-.26.86-.26 1.2 0 2.33 1.68 4.76 2.45 7.6 2.4 2.55-.03 4.74-.64 6.96-1.9.45-.26 1-.15 1.3.23l1.66 2.06c.28.35.32.85.07 1.23-1.68 2.5-2.42 5.1-2.47 8.15 0 3.66 1.5 6.18 2.8 8.46 1.15 1.95 2.06 3.5 2.06 5.83 0 5.15-7.08 6.82-9.26 7.2-4 .8-7.28 2.02-10.78 4.12-.17.1-.33.14-.54.14zm-16.05-34.48c1.6 2.74 2.35 5.45 2.35 8.6 0 4.24-1.7 7.17-3.1 9.5-1.02 1.83-1.72 3.05-1.72 4.8 0 3.66 6.3 5 7.53 5.22 4.07.8 7.36 2.06 10.94 4.1 3.58-2.04 6.92-3.3 10.95-4.1 1.26-.23 7.56-1.56 7.56-5.22 0-1.75-.7-2.97-1.77-4.8-1.37-2.33-3.1-5.26-3.1-9.5.05-3.15.8-5.86 2.43-8.6l-.66-.8c-2.3 1.18-4.56 1.75-7.2 1.75-3.04.05-5.64-.68-8.23-2.35-2.55 1.67-5.18 2.4-8.23 2.36-2.62 0-4.85-.56-7.2-1.74z" stroke="#fff" stroke-opacity="0" fill="#fff"/><path d="M1121.3 395.22c-.26 0-.46-.05-.67-.2-3.65-2.63-7.2-4.22-11.57-5.15-8.5-1.54-13.53-6.23-13.53-12.4.1-3.14.92-5.8 2.72-8.44 1.13-1.9 2.06-3.55 2.06-5.8-.1-3.15-1.38-5.77-3.74-7.88-.47-.3-.57-.98-.2-1.44.04 0 .04-.04.04-.04 0-.1 6.07-7.36 7.46-9.2.15-.32.46-.48.77-.48.36 0 .62.1.88.36 1.96 2.32 4.48 3.6 7.57 3.76 2.88 0 5.14-1.3 7.3-4.12.4-.46 1.13-.56 1.6-.15l.15.15c2.16 2.88 4.43 4.12 7.3 4.12 3.1-.16 5.6-1.44 7.57-3.76.24-.25.5-.36.86-.36.3 0 .62.16.77.47 1.4 1.85 7.4 9.1 7.46 9.2.15.2.25.47.2.78 0 .3-.16.5-.36.72-2.37 2.1-3.65 4.73-3.76 7.87 0 2.26.98 3.9 2.06 5.8 1.8 2.64 2.62 5.3 2.73 8.45 0 6.17-5.04 10.86-13.53 12.4-4.37.93-7.92 2.47-11.58 5.15-.15.1-.36.2-.56.2zm-22.58-40.8c2.47 2.47 3.7 5.35 3.75 8.8 0 2.83-1.18 4.9-2.37 6.9-1.23 2.2-2.4 4.2-2.4 7.4 0 7.5 9 9.73 11.72 10.24 4.47.93 8.12 2.47 11.88 5.04 3.7-2.57 7.35-4.1 11.83-5.04 2.73-.5 11.73-2.73 11.73-10.24 0-3.2-1.2-5.14-2.42-7.4-1.18-2.06-2.37-4.12-2.37-6.9.06-3.45 1.3-6.33 3.76-8.8-1.4-1.64-4.48-5.4-6.12-7.5-2.3 2.25-5.03 3.44-8.22 3.54-3.35 0-6.18-1.4-8.23-3.96-2.1 2.57-4.94 3.96-8.28 3.96-3.2-.1-5.92-1.3-8.24-3.55-1.5 2.12-4.63 5.88-6 7.52z" stroke="#fff" stroke-opacity="0" fill="#fff"/><g><use xlink:href="#Z" transform="matrix(1,0,0,1,1052.6666666667052,417.09142200266433) translate(28.29012345679012 17.77777777777778)"/><use xlink:href="#aa" transform="matrix(1,0,0,1,1052.6666666667052,417.09142200266433) translate(23.96913580246914 44.44444444444444)"/><use xlink:href="#ab" transform="matrix(1,0,0,1,1052.6666666667052,417.09142200266433) translate(89.3395061728395 44.44444444444444)"/></g><defs><path fill="#248814" d="M137 0h-34L2-248h35l83 218 83-218h36" id="ac"/><path fill="#248814" d="M30-248c87 1 191-15 191 75 0 78-77 80-158 76V0H30v-248zm33 125c57 0 124 11 124-50 0-59-68-47-124-48v98" id="ad"/><path fill="#248814" d="M212-179c-10-28-35-45-73-45-59 0-87 40-87 99 0 60 29 101 89 101 43 0 62-24 78-52l27 14C228-24 195 4 139 4 59 4 22-46 18-125c-6-104 99-153 187-111 19 9 31 26 39 46" id="ae"/><g id="a"><use transform="matrix(0.05,0,0,0.05,0,0)" xlink:href="#ac"/><use transform="matrix(0.05,0,0,0.05,12,0)" xlink:href="#ad"/><use transform="matrix(0.05,0,0,0.05,24,0)" xlink:href="#ae"/></g><path fill="#248814" d="M16-82v-28h88v28H16" id="af"/><use transform="matrix(0.05,0,0,0.05,0,0)" xlink:href="#af" id="b"/><path fill="#248814" d="M27 0v-27h64v-190l-56 39v-29l58-41h29v221h61V0H27" id="ag"/><path fill="#248814" d="M101-251c68 0 85 55 85 127S166 4 100 4C33 4 14-52 14-124c0-73 17-127 87-127zm-1 229c47 0 54-49 54-102s-4-102-53-102c-51 0-55 48-55 102 0 53 5 102 54 102" id="ah"/><path fill="#248814" d="M33 0v-38h34V0H33" id="ai"/><path fill="#248814" d="M0 4l72-265h28L28 4H0" id="aj"/><path fill="#248814" d="M110-160c48 1 74 30 74 79 0 53-28 85-80 85-65 0-83-55-86-122-5-90 50-162 133-122 14 7 22 21 27 39l-31 6c-5-40-67-38-82-6-9 19-15 44-15 74 11-20 30-34 60-33zm-7 138c34 0 49-23 49-58s-16-56-50-56c-29 0-50 16-49 49 1 36 15 65 50 65" id="ak"/><g id="c"><use transform="matrix(0.05,0,0,0.05,0,0)" xlink:href="#ag"/><use transform="matrix(0.05,0,0,0.05,10,0)" xlink:href="#ah"/><use transform="matrix(0.05,0,0,0.05,20,0)" xlink:href="#ai"/><use transform="matrix(0.05,0,0,0.05,25,0)" xlink:href="#ah"/><use transform="matrix(0.05,0,0,0.05,35,0)" xlink:href="#ai"/><use transform="matrix(0.05,0,0,0.05,40,0)" xlink:href="#ah"/><use transform="matrix(0.05,0,0,0.05,50,0)" xlink:href="#ai"/><use transform="matrix(0.05,0,0,0.05,55,0)" xlink:href="#ah"/><use transform="matrix(0.05,0,0,0.05,65,0)" xlink:href="#aj"/><use transform="matrix(0.05,0,0,0.05,70,0)" xlink:href="#ag"/><use transform="matrix(0.05,0,0,0.05,80,0)" xlink:href="#ak"/></g><path fill="#147eba" d="M84 4C-5 8 30-112 23-190h32v120c0 31 7 50 39 49 72-2 45-101 50-169h31l1 190h-30c-1-10 1-25-2-33-11 22-28 36-60 37" id="al"/><path fill="#147eba" d="M135-143c-3-34-86-38-87 0 15 53 115 12 119 90S17 21 10-45l28-5c4 36 97 45 98 0-10-56-113-15-118-90-4-57 82-63 122-42 12 7 21 19 24 35" id="am"/><path fill="#147eba" d="M16-82v-28h88v28H16" id="an"/><path fill="#147eba" d="M100-194c63 0 86 42 84 106H49c0 40 14 67 53 68 26 1 43-12 49-29l28 8c-11 28-37 45-77 45C44 4 14-33 15-96c1-61 26-98 85-98zm52 81c6-60-76-77-97-28-3 7-6 17-6 28h103" id="ao"/><path fill="#147eba" d="M141-36C126-15 110 5 73 4 37 3 15-17 15-53c-1-64 63-63 125-63 3-35-9-54-41-54-24 1-41 7-42 31l-33-3c5-37 33-52 76-52 45 0 72 20 72 64v82c-1 20 7 32 28 27v20c-31 9-61-2-59-35zM48-53c0 20 12 33 32 33 41-3 63-29 60-74-43 2-92-5-92 41" id="ap"/><path fill="#147eba" d="M59-47c-2 24 18 29 38 22v24C64 9 27 4 27-40v-127H5v-23h24l9-43h21v43h35v23H59v120" id="aq"/><path fill="#147eba" d="M27 0v-27h64v-190l-56 39v-29l58-41h29v221h61V0H27" id="ar"/><g id="d"><use transform="matrix(0.05,0,0,0.05,0,0)" xlink:href="#al"/><use transform="matrix(0.05,0,0,0.05,10,0)" xlink:href="#am"/><use transform="matrix(0.05,0,0,0.05,19,0)" xlink:href="#an"/><use transform="matrix(0.05,0,0,0.05,24.95,0)" xlink:href="#ao"/><use transform="matrix(0.05,0,0,0.05,34.95,0)" xlink:href="#ap"/><use transform="matrix(0.05,0,0,0.05,44.95,0)" xlink:href="#am"/><use transform="matrix(0.05,0,0,0.05,53.95,0)" xlink:href="#aq"/><use transform="matrix(0.05,0,0,0.05,58.95,0)" xlink:href="#an"/><use transform="matrix(0.05,0,0,0.05,64.9,0)" xlink:href="#ar"/><use transform="matrix(0.05,0,0,0.05,74.9,0)" xlink:href="#ap"/></g><path fill="#147eba" d="M115-194c53 0 69 39 70 98 0 66-23 100-70 100C84 3 66-7 56-30L54 0H23l1-261h32v101c10-23 28-34 59-34zm-8 174c40 0 45-34 45-75 0-40-5-75-45-74-42 0-51 32-51 76 0 43 10 73 51 73" id="as"/><g id="e"><use transform="matrix(0.05,0,0,0.05,0,0)" xlink:href="#al"/><use transform="matrix(0.05,0,0,0.05,10,0)" xlink:href="#am"/><use transform="matrix(0.05,0,0,0.05,19,0)" xlink:href="#an"/><use transform="matrix(0.05,0,0,0.05,24.95,0)" xlink:href="#ao"/><use transform="matrix(0.05,0,0,0.05,34.95,0)" xlink:href="#ap"/><use transform="matrix(0.05,0,0,0.05,44.95,0)" xlink:href="#am"/><use transform="matrix(0.05,0,0,0.05,53.95,0)" xlink:href="#aq"/><use transform="matrix(0.05,0,0,0.05,58.95,0)" xlink:href="#an"/><use transform="matrix(0.05,0,0,0.05,64.9,0)" xlink:href="#ar"/><use transform="matrix(0.05,0,0,0.05,74.9,0)" xlink:href="#as"/></g><path fill="#147eba" d="M30-248c87 1 191-15 191 75 0 78-77 80-158 76V0H30v-248zm33 125c57 0 124 11 124-50 0-59-68-47-124-48v98" id="at"/><path fill="#147eba" d="M114-163C36-179 61-72 57 0H25l-1-190h30c1 12-1 29 2 39 6-27 23-49 58-41v29" id="au"/><path fill="#147eba" d="M24-231v-30h32v30H24zM24 0v-190h32V0H24" id="av"/><path fill="#147eba" d="M108 0H70L1-190h34L89-25l56-165h34" id="aw"/><g id="f"><use transform="matrix(0.05,0,0,0.05,0,0)" xlink:href="#at"/><use transform="matrix(0.05,0,0,0.05,12,0)" xlink:href="#au"/><use transform="matrix(0.05,0,0,0.05,17.95,0)" xlink:href="#av"/><use transform="matrix(0.05,0,0,0.05,21.9,0)" xlink:href="#aw"/><use transform="matrix(0.05,0,0,0.05,30.899999999999995,0)" xlink:href="#ap"/><use transform="matrix(0.05,0,0,0.05,40.9,0)" xlink:href="#aq"/><use transform="matrix(0.05,0,0,0.05,45.9,0)" xlink:href="#ao"/></g><path fill="#147eba" d="M185-189c-5-48-123-54-124 2 14 75 158 14 163 119 3 78-121 87-175 55-17-10-28-26-33-46l33-7c5 56 141 63 141-1 0-78-155-14-162-118-5-82 145-84 179-34 5 7 8 16 11 25" id="ax"/><path fill="#147eba" d="M117-194c89-4 53 116 60 194h-32v-121c0-31-8-49-39-48C34-167 62-67 57 0H25l-1-190h30c1 10-1 24 2 32 11-22 29-35 61-36" id="ay"/><g id="g"><use transform="matrix(0.05,0,0,0.05,0,0)" xlink:href="#ax"/><use transform="matrix(0.05,0,0,0.05,12,0)" xlink:href="#al"/><use transform="matrix(0.05,0,0,0.05,22,0)" xlink:href="#as"/><use transform="matrix(0.05,0,0,0.05,32,0)" xlink:href="#ay"/><use transform="matrix(0.05,0,0,0.05,42,0)" xlink:href="#ao"/><use transform="matrix(0.05,0,0,0.05,52,0)" xlink:href="#aq"/></g><use transform="matrix(0.05,0,0,0.05,0,0)" xlink:href="#an" id="h"/><path fill="#147eba" d="M101-251c68 0 85 55 85 127S166 4 100 4C33 4 14-52 14-124c0-73 17-127 87-127zm-1 229c47 0 54-49 54-102s-4-102-53-102c-51 0-55 48-55 102 0 53 5 102 54 102" id="az"/><path fill="#147eba" d="M33 0v-38h34V0H33" id="aA"/><path fill="#147eba" d="M126-127c33 6 58 20 58 59 0 88-139 92-164 29-3-8-5-16-6-25l32-3c6 27 21 44 54 44 32 0 52-15 52-46 0-38-36-46-79-43v-28c39 1 72-4 72-42 0-27-17-43-46-43-28 0-47 15-49 41l-32-3c6-42 35-63 81-64 48-1 79 21 79 65 0 36-21 52-52 59" id="aB"/><path fill="#147eba" d="M0 4l72-265h28L28 4H0" id="aC"/><path fill="#147eba" d="M101-251c82-7 93 87 43 132L82-64C71-53 59-42 53-27h129V0H18c2-99 128-94 128-182 0-28-16-43-45-43s-46 15-49 41l-32-3c6-41 34-60 81-64" id="aD"/><path fill="#147eba" d="M155-56V0h-30v-56H8v-25l114-167h33v167h35v25h-35zm-30-156c-27 46-58 90-88 131h88v-131" id="aE"/><g id="i"><use transform="matrix(0.05,0,0,0.05,0,0)" xlink:href="#ar"/><use transform="matrix(0.05,0,0,0.05,10,0)" xlink:href="#az"/><use transform="matrix(0.05,0,0,0.05,20,0)" xlink:href="#aA"/><use transform="matrix(0.05,0,0,0.05,25,0)" xlink:href="#az"/><use transform="matrix(0.05,0,0,0.05,35,0)" xlink:href="#aA"/><use transform="matrix(0.05,0,0,0.05,40,0)" xlink:href="#aB"/><use transform="matrix(0.05,0,0,0.05,50,0)" xlink:href="#aA"/><use transform="matrix(0.05,0,0,0.05,55,0)" xlink:href="#az"/><use transform="matrix(0.05,0,0,0.05,65,0)" xlink:href="#aC"/><use transform="matrix(0.05,0,0,0.05,70,0)" xlink:href="#aD"/><use transform="matrix(0.05,0,0,0.05,80,0)" xlink:href="#aE"/></g><path fill="#248814" d="M84 4C-5 8 30-112 23-190h32v120c0 31 7 50 39 49 72-2 45-101 50-169h31l1 190h-30c-1-10 1-25-2-33-11 22-28 36-60 37" id="aF"/><path fill="#248814" d="M115-194c53 0 69 39 70 98 0 66-23 100-70 100C84 3 66-7 56-30L54 0H23l1-261h32v101c10-23 28-34 59-34zm-8 174c40 0 45-34 45-75 0-40-5-75-45-74-42 0-51 32-51 76 0 43 10 73 51 73" id="aG"/><path fill="#248814" d="M24 0v-261h32V0H24" id="aH"/><path fill="#248814" d="M24-231v-30h32v30H24zM24 0v-190h32V0H24" id="aI"/><path fill="#248814" d="M96-169c-40 0-48 33-48 73s9 75 48 75c24 0 41-14 43-38l32 2c-6 37-31 61-74 61-59 0-76-41-82-99-10-93 101-131 147-64 4 7 5 14 7 22l-32 3c-4-21-16-35-41-35" id="aJ"/><g id="j"><use transform="matrix(0.05,0,0,0.05,0,0)" xlink:href="#ad"/><use transform="matrix(0.05,0,0,0.05,12,0)" xlink:href="#aF"/><use transform="matrix(0.05,0,0,0.05,22,0)" xlink:href="#aG"/><use transform="matrix(0.05,0,0,0.05,32,0)" xlink:href="#aH"/><use transform="matrix(0.05,0,0,0.05,35.95,0)" xlink:href="#aI"/><use transform="matrix(0.05,0,0,0.05,39.900000000000006,0)" xlink:href="#aJ"/></g><path fill="#248814" d="M185-189c-5-48-123-54-124 2 14 75 158 14 163 119 3 78-121 87-175 55-17-10-28-26-33-46l33-7c5 56 141 63 141-1 0-78-155-14-162-118-5-82 145-84 179-34 5 7 8 16 11 25" id="aK"/><path fill="#248814" d="M117-194c89-4 53 116 60 194h-32v-121c0-31-8-49-39-48C34-167 62-67 57 0H25l-1-190h30c1 10-1 24 2 32 11-22 29-35 61-36" id="aL"/><path fill="#248814" d="M100-194c63 0 86 42 84 106H49c0 40 14 67 53 68 26 1 43-12 49-29l28 8c-11 28-37 45-77 45C44 4 14-33 15-96c1-61 26-98 85-98zm52 81c6-60-76-77-97-28-3 7-6 17-6 28h103" id="aM"/><path fill="#248814" d="M59-47c-2 24 18 29 38 22v24C64 9 27 4 27-40v-127H5v-23h24l9-43h21v43h35v23H59v120" id="aN"/><g id="k"><use transform="matrix(0.05,0,0,0.05,0,0)" xlink:href="#aK"/><use transform="matrix(0.05,0,0,0.05,12,0)" xlink:href="#aF"/><use transform="matrix(0.05,0,0,0.05,22,0)" xlink:href="#aG"/><use transform="matrix(0.05,0,0,0.05,32,0)" xlink:href="#aL"/><use transform="matrix(0.05,0,0,0.05,42,0)" xlink:href="#aM"/><use transform="matrix(0.05,0,0,0.05,52,0)" xlink:href="#aN"/></g><use transform="matrix(0.05,0,0,0.05,0,0)" xlink:href="#af" id="l"/><path fill="#248814" d="M101-251c82-7 93 87 43 132L82-64C71-53 59-42 53-27h129V0H18c2-99 128-94 128-182 0-28-16-43-45-43s-46 15-49 41l-32-3c6-41 34-60 81-64" id="aO"/><path fill="#248814" d="M155-56V0h-30v-56H8v-25l114-167h33v167h35v25h-35zm-30-156c-27 46-58 90-88 131h88v-131" id="aP"/><g id="m"><use transform="matrix(0.05,0,0,0.05,0,0)" xlink:href="#ag"/><use transform="matrix(0.05,0,0,0.05,10,0)" xlink:href="#ah"/><use transform="matrix(0.05,0,0,0.05,20,0)" xlink:href="#ai"/><use transform="matrix(0.05,0,0,0.05,25,0)" xlink:href="#ah"/><use transform="matrix(0.05,0,0,0.05,35,0)" xlink:href="#ai"/><use transform="matrix(0.05,0,0,0.05,40,0)" xlink:href="#ag"/><use transform="matrix(0.05,0,0,0.05,50,0)" xlink:href="#ai"/><use transform="matrix(0.05,0,0,0.05,55,0)" xlink:href="#ah"/><use transform="matrix(0.05,0,0,0.05,65,0)" xlink:href="#aj"/><use transform="matrix(0.05,0,0,0.05,70,0)" xlink:href="#aO"/><use transform="matrix(0.05,0,0,0.05,80,0)" xlink:href="#aP"/></g><g id="n"><use transform="matrix(0.05,0,0,0.05,0,0)" xlink:href="#ag"/><use transform="matrix(0.05,0,0,0.05,10,0)" xlink:href="#ah"/><use transform="matrix(0.05,0,0,0.05,20,0)" xlink:href="#ai"/><use transform="matrix(0.05,0,0,0.05,25,0)" xlink:href="#ah"/><use transform="matrix(0.05,0,0,0.05,35,0)" xlink:href="#ai"/><use transform="matrix(0.05,0,0,0.05,40,0)" xlink:href="#aO"/><use transform="matrix(0.05,0,0,0.05,50,0)" xlink:href="#ai"/><use transform="matrix(0.05,0,0,0.05,55,0)" xlink:href="#ah"/><use transform="matrix(0.05,0,0,0.05,65,0)" xlink:href="#aj"/><use transform="matrix(0.05,0,0,0.05,70,0)" xlink:href="#aO"/><use transform="matrix(0.05,0,0,0.05,80,0)" xlink:href="#aP"/></g><g id="o"><use transform="matrix(0.05,0,0,0.05,0,0)" xlink:href="#ar"/><use transform="matrix(0.05,0,0,0.05,10,0)" xlink:href="#az"/><use transform="matrix(0.05,0,0,0.05,20,0)" xlink:href="#aA"/><use transform="matrix(0.05,0,0,0.05,25,0)" xlink:href="#az"/><use transform="matrix(0.05,0,0,0.05,35,0)" xlink:href="#aA"/><use transform="matrix(0.05,0,0,0.05,40,0)" xlink:href="#aE"/><use transform="matrix(0.05,0,0,0.05,50,0)" xlink:href="#aA"/><use transform="matrix(0.05,0,0,0.05,55,0)" xlink:href="#az"/><use transform="matrix(0.05,0,0,0.05,65,0)" xlink:href="#aC"/><use transform="matrix(0.05,0,0,0.05,70,0)" xlink:href="#aD"/><use transform="matrix(0.05,0,0,0.05,80,0)" xlink:href="#aE"/></g><path fill="#232f3e" d="M205 0l-28-72H64L36 0H1l101-248h38L239 0h-34zm-38-99l-47-123c-12 45-31 82-46 123h93" id="aQ"/><path fill="#232f3e" d="M266 0h-40l-56-210L115 0H75L2-248h35L96-30l15-64 43-154h32l59 218 59-218h35" id="aR"/><path fill="#232f3e" d="M185-189c-5-48-123-54-124 2 14 75 158 14 163 119 3 78-121 87-175 55-17-10-28-26-33-46l33-7c5 56 141 63 141-1 0-78-155-14-162-118-5-82 145-84 179-34 5 7 8 16 11 25" id="aS"/><g id="p"><use transform="matrix(0.05,0,0,0.05,0,0)" xlink:href="#aQ"/><use transform="matrix(0.05,0,0,0.05,11.35,0)" xlink:href="#aR"/><use transform="matrix(0.05,0,0,0.05,28.299999999999997,0)" xlink:href="#aS"/></g><path fill="#232f3e" d="M212-179c-10-28-35-45-73-45-59 0-87 40-87 99 0 60 29 101 89 101 43 0 62-24 78-52l27 14C228-24 195 4 139 4 59 4 22-46 18-125c-6-104 99-153 187-111 19 9 31 26 39 46" id="aT"/><path fill="#232f3e" d="M24 0v-261h32V0H24" id="aU"/><path fill="#232f3e" d="M100-194c62-1 85 37 85 99 1 63-27 99-86 99S16-35 15-95c0-66 28-99 85-99zM99-20c44 1 53-31 53-75 0-43-8-75-51-75s-53 32-53 75 10 74 51 75" id="aV"/><path fill="#232f3e" d="M84 4C-5 8 30-112 23-190h32v120c0 31 7 50 39 49 72-2 45-101 50-169h31l1 190h-30c-1-10 1-25-2-33-11 22-28 36-60 37" id="aW"/><path fill="#232f3e" d="M85-194c31 0 48 13 60 33l-1-100h32l1 261h-30c-2-10 0-23-3-31C134-8 116 4 85 4 32 4 16-35 15-94c0-66 23-100 70-100zm9 24c-40 0-46 34-46 75 0 40 6 74 45 74 42 0 51-32 51-76 0-42-9-74-50-73" id="aX"/><g id="q"><use transform="matrix(0.05,0,0,0.05,0,0)" xlink:href="#aT"/><use transform="matrix(0.05,0,0,0.05,12.950000000000001,0)" xlink:href="#aU"/><use transform="matrix(0.05,0,0,0.05,16.900000000000002,0)" xlink:href="#aV"/><use transform="matrix(0.05,0,0,0.05,26.900000000000002,0)" xlink:href="#aW"/><use transform="matrix(0.05,0,0,0.05,36.900000000000006,0)" xlink:href="#aX"/></g><path fill="#d86613" d="M30 0v-248h187v28H63v79h144v27H63v87h162V0H30" id="aY"/><path fill="#d86613" d="M212-179c-10-28-35-45-73-45-59 0-87 40-87 99 0 60 29 101 89 101 43 0 62-24 78-52l27 14C228-24 195 4 139 4 59 4 22-46 18-125c-6-104 99-153 187-111 19 9 31 26 39 46" id="aZ"/><path fill="#d86613" d="M185-189c-5-48-123-54-124 2 14 75 158 14 163 119 3 78-121 87-175 55-17-10-28-26-33-46l33-7c5 56 141 63 141-1 0-78-155-14-162-118-5-82 145-84 179-34 5 7 8 16 11 25" id="ba"/><g id="r"><use transform="matrix(0.05,0,0,0.05,0,0)" xlink:href="#aY"/><use transform="matrix(0.05,0,0,0.05,12,0)" xlink:href="#aZ"/><use transform="matrix(0.05,0,0,0.05,24.950000000000003,0)" xlink:href="#ba"/></g><path fill="#d86613" d="M24 0v-261h32V0H24" id="bb"/><path fill="#d86613" d="M84 4C-5 8 30-112 23-190h32v120c0 31 7 50 39 49 72-2 45-101 50-169h31l1 190h-30c-1-10 1-25-2-33-11 22-28 36-60 37" id="bc"/><path fill="#d86613" d="M135-143c-3-34-86-38-87 0 15 53 115 12 119 90S17 21 10-45l28-5c4 36 97 45 98 0-10-56-113-15-118-90-4-57 82-63 122-42 12 7 21 19 24 35" id="bd"/><path fill="#d86613" d="M59-47c-2 24 18 29 38 22v24C64 9 27 4 27-40v-127H5v-23h24l9-43h21v43h35v23H59v120" id="be"/><path fill="#d86613" d="M100-194c63 0 86 42 84 106H49c0 40 14 67 53 68 26 1 43-12 49-29l28 8c-11 28-37 45-77 45C44 4 14-33 15-96c1-61 26-98 85-98zm52 81c6-60-76-77-97-28-3 7-6 17-6 28h103" id="bf"/><path fill="#d86613" d="M114-163C36-179 61-72 57 0H25l-1-190h30c1 12-1 29 2 39 6-27 23-49 58-41v29" id="bg"/><g id="s"><use transform="matrix(0.05,0,0,0.05,0,0)" xlink:href="#aZ"/><use transform="matrix(0.05,0,0,0.05,12.950000000000001,0)" xlink:href="#bb"/><use transform="matrix(0.05,0,0,0.05,16.900000000000002,0)" xlink:href="#bc"/><use transform="matrix(0.05,0,0,0.05,26.900000000000002,0)" xlink:href="#bd"/><use transform="matrix(0.05,0,0,0.05,35.900000000000006,0)" xlink:href="#be"/><use transform="matrix(0.05,0,0,0.05,40.900000000000006,0)" xlink:href="#bf"/><use transform="matrix(0.05,0,0,0.05,50.900000000000006,0)" xlink:href="#bg"/></g><path fill="#d86613" d="M100-194c62-1 85 37 85 99 1 63-27 99-86 99S16-35 15-95c0-66 28-99 85-99zM99-20c44 1 53-31 53-75 0-43-8-75-51-75s-53 32-53 75 10 74 51 75" id="bh"/><path fill="#d86613" d="M117-194c89-4 53 116 60 194h-32v-121c0-31-8-49-39-48C34-167 62-67 57 0H25l-1-190h30c1 10-1 24 2 32 11-22 29-35 61-36" id="bi"/><path fill="#d86613" d="M141-36C126-15 110 5 73 4 37 3 15-17 15-53c-1-64 63-63 125-63 3-35-9-54-41-54-24 1-41 7-42 31l-33-3c5-37 33-52 76-52 45 0 72 20 72 64v82c-1 20 7 32 28 27v20c-31 9-61-2-59-35zM48-53c0 20 12 33 32 33 41-3 63-29 60-74-43 2-92-5-92 41" id="bj"/><path fill="#d86613" d="M24-231v-30h32v30H24zM24 0v-190h32V0H24" id="bk"/><path fill="#d86613" d="M33-154v-36h34v36H33zM33 0v-36h34V0H33" id="bl"/><g id="t"><use transform="matrix(0.05,0,0,0.05,0,0)" xlink:href="#aZ"/><use transform="matrix(0.05,0,0,0.05,12.950000000000001,0)" xlink:href="#bh"/><use transform="matrix(0.05,0,0,0.05,22.950000000000003,0)" xlink:href="#bi"/><use transform="matrix(0.05,0,0,0.05,32.95,0)" xlink:href="#be"/><use transform="matrix(0.05,0,0,0.05,37.95,0)" xlink:href="#bj"/><use transform="matrix(0.05,0,0,0.05,47.95,0)" xlink:href="#bk"/><use transform="matrix(0.05,0,0,0.05,51.900000000000006,0)" xlink:href="#bi"/><use transform="matrix(0.05,0,0,0.05,61.900000000000006,0)" xlink:href="#bf"/><use transform="matrix(0.05,0,0,0.05,71.9,0)" xlink:href="#bg"/><use transform="matrix(0.05,0,0,0.05,77.85000000000001,0)" xlink:href="#bl"/></g><path fill="#d86613" d="M127-220V0H93v-220H8v-28h204v28h-85" id="bm"/><path fill="#d86613" d="M143 0L79-87 56-68V0H24v-261h32v163l83-92h37l-77 82L181 0h-38" id="bn"/><g id="u"><use transform="matrix(0.05,0,0,0.05,0,0)" xlink:href="#bm"/><use transform="matrix(0.05,0,0,0.05,8.950000000000001,0)" xlink:href="#bj"/><use transform="matrix(0.05,0,0,0.05,18.950000000000003,0)" xlink:href="#bd"/><use transform="matrix(0.05,0,0,0.05,27.950000000000003,0)" xlink:href="#bn"/></g><path fill="#d86613" d="M85-194c31 0 48 13 60 33l-1-100h32l1 261h-30c-2-10 0-23-3-31C134-8 116 4 85 4 32 4 16-35 15-94c0-66 23-100 70-100zm9 24c-40 0-46 34-46 75 0 40 6 74 45 74 42 0 51-32 51-76 0-42-9-74-50-73" id="bo"/><g id="v"><use transform="matrix(0.05,0,0,0.05,0,0)" xlink:href="#bo"/><use transform="matrix(0.05,0,0,0.05,10,0)" xlink:href="#bf"/><use transform="matrix(0.05,0,0,0.05,20,0)" xlink:href="#bd"/><use transform="matrix(0.05,0,0,0.05,29,0)" xlink:href="#bk"/><use transform="matrix(0.05,0,0,0.05,32.95,0)" xlink:href="#bg"/><use transform="matrix(0.05,0,0,0.05,38.900000000000006,0)" xlink:href="#bf"/><use transform="matrix(0.05,0,0,0.05,48.900000000000006,0)" xlink:href="#bo"/></g><path fill="#d86613" d="M96-169c-40 0-48 33-48 73s9 75 48 75c24 0 41-14 43-38l32 2c-6 37-31 61-74 61-59 0-76-41-82-99-10-93 101-131 147-64 4 7 5 14 7 22l-32 3c-4-21-16-35-41-35" id="bp"/><g id="w"><use transform="matrix(0.05,0,0,0.05,0,0)" xlink:href="#bp"/><use transform="matrix(0.05,0,0,0.05,9,0)" xlink:href="#bh"/><use transform="matrix(0.05,0,0,0.05,19,0)" xlink:href="#bc"/><use transform="matrix(0.05,0,0,0.05,29,0)" xlink:href="#bi"/><use transform="matrix(0.05,0,0,0.05,39,0)" xlink:href="#be"/><use transform="matrix(0.05,0,0,0.05,44,0)" xlink:href="#bl"/></g><path fill="#d86613" d="M101-251c82-7 93 87 43 132L82-64C71-53 59-42 53-27h129V0H18c2-99 128-94 128-182 0-28-16-43-45-43s-46 15-49 41l-32-3c6-41 34-60 81-64" id="bq"/><use transform="matrix(0.05,0,0,0.05,0,0)" xlink:href="#bq" id="x"/><path fill="#3a414a" d="M33 0v-248h34V0H33" id="br"/><path fill="#3a414a" d="M117-194c89-4 53 116 60 194h-32v-121c0-31-8-49-39-48C34-167 62-67 57 0H25l-1-190h30c1 10-1 24 2 32 11-22 29-35 61-36" id="bs"/><path fill="#3a414a" d="M59-47c-2 24 18 29 38 22v24C64 9 27 4 27-40v-127H5v-23h24l9-43h21v43h35v23H59v120" id="bt"/><path fill="#3a414a" d="M100-194c63 0 86 42 84 106H49c0 40 14 67 53 68 26 1 43-12 49-29l28 8c-11 28-37 45-77 45C44 4 14-33 15-96c1-61 26-98 85-98zm52 81c6-60-76-77-97-28-3 7-6 17-6 28h103" id="bu"/><path fill="#3a414a" d="M114-163C36-179 61-72 57 0H25l-1-190h30c1 12-1 29 2 39 6-27 23-49 58-41v29" id="bv"/><g id="y"><use transform="matrix(0.06172839506172839,0,0,0.06172839506172839,0,0)" xlink:href="#br"/><use transform="matrix(0.06172839506172839,0,0,0.06172839506172839,6.172839506172839,0)" xlink:href="#bs"/><use transform="matrix(0.06172839506172839,0,0,0.06172839506172839,18.51851851851852,0)" xlink:href="#bt"/><use transform="matrix(0.06172839506172839,0,0,0.06172839506172839,24.691358024691358,0)" xlink:href="#bu"/><use transform="matrix(0.06172839506172839,0,0,0.06172839506172839,37.03703703703704,0)" xlink:href="#bv"/><use transform="matrix(0.06172839506172839,0,0,0.06172839506172839,44.382716049382715,0)" xlink:href="#bs"/><use transform="matrix(0.06172839506172839,0,0,0.06172839506172839,56.72839506172839,0)" xlink:href="#bu"/><use transform="matrix(0.06172839506172839,0,0,0.06172839506172839,69.07407407407408,0)" xlink:href="#bt"/></g><path fill="#3a414a" d="M177-190C167-65 218 103 67 71c-23-6-38-20-44-43l32-5c15 47 100 32 89-28v-30C133-14 115 1 83 1 29 1 15-40 15-95c0-56 16-97 71-98 29-1 48 16 59 35 1-10 0-23 2-32h30zM94-22c36 0 50-32 50-73 0-42-14-75-50-75-39 0-46 34-46 75s6 73 46 73" id="bw"/><path fill="#3a414a" d="M141-36C126-15 110 5 73 4 37 3 15-17 15-53c-1-64 63-63 125-63 3-35-9-54-41-54-24 1-41 7-42 31l-33-3c5-37 33-52 76-52 45 0 72 20 72 64v82c-1 20 7 32 28 27v20c-31 9-61-2-59-35zM48-53c0 20 12 33 32 33 41-3 63-29 60-74-43 2-92-5-92 41" id="bx"/><path fill="#3a414a" d="M206 0h-36l-40-164L89 0H53L-1-190h32L70-26l43-164h34l41 164 42-164h31" id="by"/><path fill="#3a414a" d="M179-190L93 31C79 59 56 82 12 73V49c39 6 53-20 64-50L1-190h34L92-34l54-156h33" id="bz"/><g id="z"><use transform="matrix(0.06172839506172839,0,0,0.06172839506172839,0,0)" xlink:href="#bw"/><use transform="matrix(0.06172839506172839,0,0,0.06172839506172839,12.345679012345679,0)" xlink:href="#bx"/><use transform="matrix(0.06172839506172839,0,0,0.06172839506172839,24.691358024691358,0)" xlink:href="#bt"/><use transform="matrix(0.06172839506172839,0,0,0.06172839506172839,30.864197530864196,0)" xlink:href="#bu"/><use transform="matrix(0.06172839506172839,0,0,0.06172839506172839,43.20987654320987,0)" xlink:href="#by"/><use transform="matrix(0.06172839506172839,0,0,0.06172839506172839,59.197530864197525,0)" xlink:href="#bx"/><use transform="matrix(0.06172839506172839,0,0,0.06172839506172839,71.5432098765432,0)" xlink:href="#bz"/></g><path fill="#3a414a" d="M190 0L58-211 59 0H30v-248h39L202-35l-2-213h31V0h-41" id="bA"/><path fill="#3a414a" d="M205 0l-28-72H64L36 0H1l101-248h38L239 0h-34zm-38-99l-47-123c-12 45-31 82-46 123h93" id="bB"/><path fill="#3a414a" d="M127-220V0H93v-220H8v-28h204v28h-85" id="bC"/><g id="A"><use transform="matrix(0.06172839506172839,0,0,0.06172839506172839,0,0)" xlink:href="#bA"/><use transform="matrix(0.06172839506172839,0,0,0.06172839506172839,15.987654320987653,0)" xlink:href="#bB"/><use transform="matrix(0.06172839506172839,0,0,0.06172839506172839,29.1358024691358,0)" xlink:href="#bC"/></g><path fill="#3a414a" d="M30 0v-248h187v28H63v79h144v27H63v87h162V0H30" id="bD"/><path fill="#3a414a" d="M24 0v-261h32V0H24" id="bE"/><path fill="#3a414a" d="M135-143c-3-34-86-38-87 0 15 53 115 12 119 90S17 21 10-45l28-5c4 36 97 45 98 0-10-56-113-15-118-90-4-57 82-63 122-42 12 7 21 19 24 35" id="bF"/><path fill="#3a414a" d="M24-231v-30h32v30H24zM24 0v-190h32V0H24" id="bG"/><path fill="#3a414a" d="M96-169c-40 0-48 33-48 73s9 75 48 75c24 0 41-14 43-38l32 2c-6 37-31 61-74 61-59 0-76-41-82-99-10-93 101-131 147-64 4 7 5 14 7 22l-32 3c-4-21-16-35-41-35" id="bH"/><g id="B"><use transform="matrix(0.06172839506172839,0,0,0.06172839506172839,0,0)" xlink:href="#bD"/><use transform="matrix(0.06172839506172839,0,0,0.06172839506172839,14.814814814814813,0)" xlink:href="#bE"/><use transform="matrix(0.06172839506172839,0,0,0.06172839506172839,19.691358024691354,0)" xlink:href="#bx"/><use transform="matrix(0.06172839506172839,0,0,0.06172839506172839,32.03703703703703,0)" xlink:href="#bF"/><use transform="matrix(0.06172839506172839,0,0,0.06172839506172839,43.14814814814814,0)" xlink:href="#bt"/><use transform="matrix(0.06172839506172839,0,0,0.06172839506172839,49.32098765432098,0)" xlink:href="#bG"/><use transform="matrix(0.06172839506172839,0,0,0.06172839506172839,54.197530864197525,0)" xlink:href="#bH"/></g><path fill="#3a414a" d="M212-179c-10-28-35-45-73-45-59 0-87 40-87 99 0 60 29 101 89 101 43 0 62-24 78-52l27 14C228-24 195 4 139 4 59 4 22-46 18-125c-6-104 99-153 187-111 19 9 31 26 39 46" id="bI"/><path fill="#3a414a" d="M100-194c62-1 85 37 85 99 1 63-27 99-86 99S16-35 15-95c0-66 28-99 85-99zM99-20c44 1 53-31 53-75 0-43-8-75-51-75s-53 32-53 75 10 74 51 75" id="bJ"/><g id="C"><use transform="matrix(0.06172839506172839,0,0,0.06172839506172839,0,0)" xlink:href="#bI"/><use transform="matrix(0.06172839506172839,0,0,0.06172839506172839,15.987654320987653,0)" xlink:href="#bJ"/><use transform="matrix(0.06172839506172839,0,0,0.06172839506172839,28.333333333333332,0)" xlink:href="#bs"/><use transform="matrix(0.06172839506172839,0,0,0.06172839506172839,40.67901234567901,0)" xlink:href="#bt"/><use transform="matrix(0.06172839506172839,0,0,0.06172839506172839,46.851851851851855,0)" xlink:href="#bx"/><use transform="matrix(0.06172839506172839,0,0,0.06172839506172839,59.19753086419753,0)" xlink:href="#bG"/><use transform="matrix(0.06172839506172839,0,0,0.06172839506172839,64.07407407407408,0)" xlink:href="#bs"/><use transform="matrix(0.06172839506172839,0,0,0.06172839506172839,76.41975308641976,0)" xlink:href="#bu"/><use transform="matrix(0.06172839506172839,0,0,0.06172839506172839,88.76543209876544,0)" xlink:href="#bv"/></g><path fill="#3a414a" d="M233-177c-1 41-23 64-60 70L243 0h-38l-65-103H63V0H30v-248c88 3 205-21 203 71zM63-129c60-2 137 13 137-47 0-61-80-42-137-45v92" id="bK"/><g id="D"><use transform="matrix(0.06172839506172839,0,0,0.06172839506172839,0,0)" xlink:href="#bK"/><use transform="matrix(0.06172839506172839,0,0,0.06172839506172839,15.987654320987653,0)" xlink:href="#bu"/><use transform="matrix(0.06172839506172839,0,0,0.06172839506172839,28.333333333333332,0)" xlink:href="#bw"/><use transform="matrix(0.06172839506172839,0,0,0.06172839506172839,40.67901234567901,0)" xlink:href="#bG"/><use transform="matrix(0.06172839506172839,0,0,0.06172839506172839,45.55555555555556,0)" xlink:href="#bF"/><use transform="matrix(0.06172839506172839,0,0,0.06172839506172839,56.66666666666667,0)" xlink:href="#bt"/><use transform="matrix(0.06172839506172839,0,0,0.06172839506172839,62.83950617283951,0)" xlink:href="#bv"/><use transform="matrix(0.06172839506172839,0,0,0.06172839506172839,70.18518518518519,0)" xlink:href="#bz"/></g><path fill="#3a414a" d="M210-169c-67 3-38 105-44 169h-31v-121c0-29-5-50-35-48C34-165 62-65 56 0H25l-1-190h30c1 10-1 24 2 32 10-44 99-50 107 0 11-21 27-35 58-36 85-2 47 119 55 194h-31v-121c0-29-5-49-35-48" id="bL"/><path fill="#3a414a" d="M9 0v-24l116-142H16v-24h144v24L44-24h123V0H9" id="bM"/><g id="E"><use transform="matrix(0.06172839506172839,0,0,0.06172839506172839,0,0)" xlink:href="#bB"/><use transform="matrix(0.06172839506172839,0,0,0.06172839506172839,14.814814814814813,0)" xlink:href="#bL"/><use transform="matrix(0.06172839506172839,0,0,0.06172839506172839,33.2716049382716,0)" xlink:href="#bx"/><use transform="matrix(0.06172839506172839,0,0,0.06172839506172839,45.61728395061728,0)" xlink:href="#bM"/><use transform="matrix(0.06172839506172839,0,0,0.06172839506172839,56.72839506172839,0)" xlink:href="#bJ"/><use transform="matrix(0.06172839506172839,0,0,0.06172839506172839,69.07407407407408,0)" xlink:href="#bs"/></g><path fill="#3a414a" d="M185-189c-5-48-123-54-124 2 14 75 158 14 163 119 3 78-121 87-175 55-17-10-28-26-33-46l33-7c5 56 141 63 141-1 0-78-155-14-162-118-5-82 145-84 179-34 5 7 8 16 11 25" id="bN"/><path fill="#3a414a" d="M115-194c55 1 70 41 70 98S169 2 115 4C84 4 66-9 55-30l1 105H24l-1-265h31l2 30c10-21 28-34 59-34zm-8 174c40 0 45-34 45-75s-6-73-45-74c-42 0-51 32-51 76 0 43 10 73 51 73" id="bO"/><g id="F"><use transform="matrix(0.06172839506172839,0,0,0.06172839506172839,0,0)" xlink:href="#bN"/><use transform="matrix(0.06172839506172839,0,0,0.06172839506172839,14.814814814814813,0)" xlink:href="#bG"/><use transform="matrix(0.06172839506172839,0,0,0.06172839506172839,19.691358024691354,0)" xlink:href="#bL"/><use transform="matrix(0.06172839506172839,0,0,0.06172839506172839,38.14814814814814,0)" xlink:href="#bO"/><use transform="matrix(0.06172839506172839,0,0,0.06172839506172839,50.493827160493815,0)" xlink:href="#bE"/><use transform="matrix(0.06172839506172839,0,0,0.06172839506172839,55.37037037037036,0)" xlink:href="#bu"/></g><g id="G"><use transform="matrix(0.06172839506172839,0,0,0.06172839506172839,0,0)" xlink:href="#bN"/><use transform="matrix(0.06172839506172839,0,0,0.06172839506172839,14.814814814814813,0)" xlink:href="#bt"/><use transform="matrix(0.06172839506172839,0,0,0.06172839506172839,20.98765432098765,0)" xlink:href="#bJ"/><use transform="matrix(0.06172839506172839,0,0,0.06172839506172839,33.33333333333333,0)" xlink:href="#bv"/><use transform="matrix(0.06172839506172839,0,0,0.06172839506172839,40.679012345679006,0)" xlink:href="#bx"/><use transform="matrix(0.06172839506172839,0,0,0.06172839506172839,53.02469135802468,0)" xlink:href="#bw"/><use transform="matrix(0.06172839506172839,0,0,0.06172839506172839,65.37037037037037,0)" xlink:href="#bu"/></g><path fill="#3a414a" d="M108 0H70L1-190h34L89-25l56-165h34" id="bP"/><g id="H"><use transform="matrix(0.06172839506172839,0,0,0.06172839506172839,0,0)" xlink:href="#bN"/><use transform="matrix(0.06172839506172839,0,0,0.06172839506172839,14.814814814814813,0)" xlink:href="#bu"/><use transform="matrix(0.06172839506172839,0,0,0.06172839506172839,27.160493827160494,0)" xlink:href="#bv"/><use transform="matrix(0.06172839506172839,0,0,0.06172839506172839,34.50617283950617,0)" xlink:href="#bP"/><use transform="matrix(0.06172839506172839,0,0,0.06172839506172839,45.61728395061728,0)" xlink:href="#bG"/><use transform="matrix(0.06172839506172839,0,0,0.06172839506172839,50.49382716049382,0)" xlink:href="#bH"/><use transform="matrix(0.06172839506172839,0,0,0.06172839506172839,61.60493827160494,0)" xlink:href="#bu"/></g><path fill="#3a414a" d="M87 75C49 33 22-17 22-94c0-76 28-126 65-167h31c-38 41-64 92-64 168S80 34 118 75H87" id="bQ"/><path fill="#3a414a" d="M126-127c33 6 58 20 58 59 0 88-139 92-164 29-3-8-5-16-6-25l32-3c6 27 21 44 54 44 32 0 52-15 52-46 0-38-36-46-79-43v-28c39 1 72-4 72-42 0-27-17-43-46-43-28 0-47 15-49 41l-32-3c6-42 35-63 81-64 48-1 79 21 79 65 0 36-21 52-52 59" id="bR"/><path fill="#3a414a" d="M33-261c38 41 65 92 65 168S71 34 33 75H2C39 34 66-17 66-93S39-220 2-261h31" id="bS"/><g id="I"><use transform="matrix(0.06172839506172839,0,0,0.06172839506172839,0,0)" xlink:href="#bQ"/><use transform="matrix(0.06172839506172839,0,0,0.06172839506172839,7.345679012345679,0)" xlink:href="#bN"/><use transform="matrix(0.06172839506172839,0,0,0.06172839506172839,22.160493827160494,0)" xlink:href="#bR"/><use transform="matrix(0.06172839506172839,0,0,0.06172839506172839,34.50617283950617,0)" xlink:href="#bS"/></g><g id="J"><use transform="matrix(0.06172839506172839,0,0,0.06172839506172839,0,0)" xlink:href="#bB"/><use transform="matrix(0.06172839506172839,0,0,0.06172839506172839,14.814814814814813,0)" xlink:href="#bO"/><use transform="matrix(0.06172839506172839,0,0,0.06172839506172839,27.160493827160494,0)" xlink:href="#bO"/><use transform="matrix(0.06172839506172839,0,0,0.06172839506172839,39.50617283950617,0)" xlink:href="#bE"/><use transform="matrix(0.06172839506172839,0,0,0.06172839506172839,44.382716049382715,0)" xlink:href="#bG"/><use transform="matrix(0.06172839506172839,0,0,0.06172839506172839,49.25925925925926,0)" xlink:href="#bH"/><use transform="matrix(0.06172839506172839,0,0,0.06172839506172839,60.37037037037037,0)" xlink:href="#bx"/><use transform="matrix(0.06172839506172839,0,0,0.06172839506172839,72.71604938271605,0)" xlink:href="#bt"/><use transform="matrix(0.06172839506172839,0,0,0.06172839506172839,78.88888888888889,0)" xlink:href="#bG"/><use transform="matrix(0.06172839506172839,0,0,0.06172839506172839,83.76543209876543,0)" xlink:href="#bJ"/><use transform="matrix(0.06172839506172839,0,0,0.06172839506172839,96.11111111111111,0)" xlink:href="#bs"/></g><path fill="#3a414a" d="M30 0v-248h33v221h125V0H30" id="bT"/><path fill="#3a414a" d="M85-194c31 0 48 13 60 33l-1-100h32l1 261h-30c-2-10 0-23-3-31C134-8 116 4 85 4 32 4 16-35 15-94c0-66 23-100 70-100zm9 24c-40 0-46 34-46 75 0 40 6 74 45 74 42 0 51-32 51-76 0-42-9-74-50-73" id="bU"/><g id="K"><use transform="matrix(0.06172839506172839,0,0,0.06172839506172839,0,0)" xlink:href="#bT"/><use transform="matrix(0.06172839506172839,0,0,0.06172839506172839,12.345679012345679,0)" xlink:href="#bJ"/><use transform="matrix(0.06172839506172839,0,0,0.06172839506172839,24.691358024691358,0)" xlink:href="#bx"/><use transform="matrix(0.06172839506172839,0,0,0.06172839506172839,37.03703703703704,0)" xlink:href="#bU"/></g><path fill="#3a414a" d="M160-131c35 5 61 23 61 61C221 17 115-2 30 0v-248c76 3 177-17 177 60 0 33-19 50-47 57zm-97-11c50-1 110 9 110-42 0-47-63-36-110-37v79zm0 115c55-2 124 14 124-45 0-56-70-42-124-44v89" id="bV"/><g id="L"><use transform="matrix(0.06172839506172839,0,0,0.06172839506172839,0,0)" xlink:href="#bV"/><use transform="matrix(0.06172839506172839,0,0,0.06172839506172839,14.814814814814813,0)" xlink:href="#bx"/><use transform="matrix(0.06172839506172839,0,0,0.06172839506172839,27.160493827160494,0)" xlink:href="#bE"/><use transform="matrix(0.06172839506172839,0,0,0.06172839506172839,32.03703703703704,0)" xlink:href="#bx"/><use transform="matrix(0.06172839506172839,0,0,0.06172839506172839,44.382716049382715,0)" xlink:href="#bs"/><use transform="matrix(0.06172839506172839,0,0,0.06172839506172839,56.72839506172839,0)" xlink:href="#bH"/><use transform="matrix(0.06172839506172839,0,0,0.06172839506172839,67.8395061728395,0)" xlink:href="#bu"/><use transform="matrix(0.06172839506172839,0,0,0.06172839506172839,80.18518518518519,0)" xlink:href="#bv"/></g><path fill="#3a414a" d="M266 0h-40l-56-210L115 0H75L2-248h35L96-30l15-64 43-154h32l59 218 59-218h35" id="bW"/><g id="M"><use transform="matrix(0.06172839506172839,0,0,0.06172839506172839,0,0)" xlink:href="#bB"/><use transform="matrix(0.06172839506172839,0,0,0.06172839506172839,14.012345679012345,0)" xlink:href="#bW"/><use transform="matrix(0.06172839506172839,0,0,0.06172839506172839,34.938271604938265,0)" xlink:href="#bN"/></g><path fill="#3a414a" d="M63-220v92h138v28H63V0H30v-248h175v28H63" id="bX"/><g id="N"><use transform="matrix(0.06172839506172839,0,0,0.06172839506172839,0,0)" xlink:href="#bX"/><use transform="matrix(0.06172839506172839,0,0,0.06172839506172839,13.518518518518517,0)" xlink:href="#bx"/><use transform="matrix(0.06172839506172839,0,0,0.06172839506172839,25.864197530864196,0)" xlink:href="#bv"/><use transform="matrix(0.06172839506172839,0,0,0.06172839506172839,33.20987654320987,0)" xlink:href="#bw"/><use transform="matrix(0.06172839506172839,0,0,0.06172839506172839,45.55555555555555,0)" xlink:href="#bx"/><use transform="matrix(0.06172839506172839,0,0,0.06172839506172839,57.90123456790123,0)" xlink:href="#bt"/><use transform="matrix(0.06172839506172839,0,0,0.06172839506172839,64.07407407407406,0)" xlink:href="#bu"/></g><path fill="#3a414a" d="M106-169C34-169 62-67 57 0H25v-261h32l-1 103c12-21 28-36 61-36 89 0 53 116 60 194h-32v-121c2-32-8-49-39-48" id="bY"/><g id="O"><use transform="matrix(0.06172839506172839,0,0,0.06172839506172839,0,0)" xlink:href="#bD"/><use transform="matrix(0.06172839506172839,0,0,0.06172839506172839,14.814814814814813,0)" xlink:href="#bE"/><use transform="matrix(0.06172839506172839,0,0,0.06172839506172839,19.691358024691354,0)" xlink:href="#bx"/><use transform="matrix(0.06172839506172839,0,0,0.06172839506172839,32.03703703703703,0)" xlink:href="#bF"/><use transform="matrix(0.06172839506172839,0,0,0.06172839506172839,43.14814814814814,0)" xlink:href="#bt"/><use transform="matrix(0.06172839506172839,0,0,0.06172839506172839,49.32098765432098,0)" xlink:href="#bG"/><use transform="matrix(0.06172839506172839,0,0,0.06172839506172839,54.197530864197525,0)" xlink:href="#bI"/><use transform="matrix(0.06172839506172839,0,0,0.06172839506172839,70.18518518518518,0)" xlink:href="#bx"/><use transform="matrix(0.06172839506172839,0,0,0.06172839506172839,82.53086419753086,0)" xlink:href="#bH"/><use transform="matrix(0.06172839506172839,0,0,0.06172839506172839,93.64197530864197,0)" xlink:href="#bY"/><use transform="matrix(0.06172839506172839,0,0,0.06172839506172839,105.98765432098766,0)" xlink:href="#bu"/></g><g id="P"><use transform="matrix(0.06172839506172839,0,0,0.06172839506172839,0,0)" xlink:href="#bX"/><use transform="matrix(0.06172839506172839,0,0,0.06172839506172839,13.518518518518517,0)" xlink:href="#bJ"/><use transform="matrix(0.06172839506172839,0,0,0.06172839506172839,25.864197530864196,0)" xlink:href="#bv"/></g><g id="Q"><use transform="matrix(0.06172839506172839,0,0,0.06172839506172839,0,0)" xlink:href="#bK"/><use transform="matrix(0.06172839506172839,0,0,0.06172839506172839,15.987654320987653,0)" xlink:href="#bu"/><use transform="matrix(0.06172839506172839,0,0,0.06172839506172839,28.333333333333332,0)" xlink:href="#bU"/><use transform="matrix(0.06172839506172839,0,0,0.06172839506172839,40.67901234567901,0)" xlink:href="#bG"/><use transform="matrix(0.06172839506172839,0,0,0.06172839506172839,45.55555555555556,0)" xlink:href="#bF"/></g><g id="R"><use transform="matrix(0.06172839506172839,0,0,0.06172839506172839,0,0)" xlink:href="#bA"/><use transform="matrix(0.06172839506172839,0,0,0.06172839506172839,15.987654320987653,0)" xlink:href="#bB"/><use transform="matrix(0.06172839506172839,0,0,0.06172839506172839,29.1358024691358,0)" xlink:href="#bC"/></g><g id="S"><use transform="matrix(0.06172839506172839,0,0,0.06172839506172839,0,0)" xlink:href="#bw"/><use transform="matrix(0.06172839506172839,0,0,0.06172839506172839,12.345679012345679,0)" xlink:href="#bx"/><use transform="matrix(0.06172839506172839,0,0,0.06172839506172839,24.691358024691358,0)" xlink:href="#bt"/><use transform="matrix(0.06172839506172839,0,0,0.06172839506172839,30.864197530864196,0)" xlink:href="#bu"/><use transform="matrix(0.06172839506172839,0,0,0.06172839506172839,43.20987654320987,0)" xlink:href="#by"/><use transform="matrix(0.06172839506172839,0,0,0.06172839506172839,59.197530864197525,0)" xlink:href="#bx"/><use transform="matrix(0.06172839506172839,0,0,0.06172839506172839,71.5432098765432,0)" xlink:href="#bz"/></g><path d="M63-220v92h138v28H63V0H30v-248h175v28H63" id="bZ"/><path d="M141-36C126-15 110 5 73 4 37 3 15-17 15-53c-1-64 63-63 125-63 3-35-9-54-41-54-24 1-41 7-42 31l-33-3c5-37 33-52 76-52 45 0 72 20 72 64v82c-1 20 7 32 28 27v20c-31 9-61-2-59-35zM48-53c0 20 12 33 32 33 41-3 63-29 60-74-43 2-92-5-92 41" id="ca"/><path d="M114-163C36-179 61-72 57 0H25l-1-190h30c1 12-1 29 2 39 6-27 23-49 58-41v29" id="cb"/><path d="M177-190C167-65 218 103 67 71c-23-6-38-20-44-43l32-5c15 47 100 32 89-28v-30C133-14 115 1 83 1 29 1 15-40 15-95c0-56 16-97 71-98 29-1 48 16 59 35 1-10 0-23 2-32h30zM94-22c36 0 50-32 50-73 0-42-14-75-50-75-39 0-46 34-46 75s6 73 46 73" id="cc"/><path d="M59-47c-2 24 18 29 38 22v24C64 9 27 4 27-40v-127H5v-23h24l9-43h21v43h35v23H59v120" id="cd"/><path d="M100-194c63 0 86 42 84 106H49c0 40 14 67 53 68 26 1 43-12 49-29l28 8c-11 28-37 45-77 45C44 4 14-33 15-96c1-61 26-98 85-98zm52 81c6-60-76-77-97-28-3 7-6 17-6 28h103" id="ce"/><g id="T"><use transform="matrix(0.05,0,0,0.05,0,0)" xlink:href="#bZ"/><use transform="matrix(0.05,0,0,0.05,10.950000000000001,0)" xlink:href="#ca"/><use transform="matrix(0.05,0,0,0.05,20.950000000000003,0)" xlink:href="#cb"/><use transform="matrix(0.05,0,0,0.05,26.900000000000002,0)" xlink:href="#cc"/><use transform="matrix(0.05,0,0,0.05,36.900000000000006,0)" xlink:href="#ca"/><use transform="matrix(0.05,0,0,0.05,46.900000000000006,0)" xlink:href="#cd"/><use transform="matrix(0.05,0,0,0.05,51.900000000000006,0)" xlink:href="#ce"/></g><path d="M127-220V0H93v-220H8v-28h204v28h-85" id="cf"/><path d="M135-143c-3-34-86-38-87 0 15 53 115 12 119 90S17 21 10-45l28-5c4 36 97 45 98 0-10-56-113-15-118-90-4-57 82-63 122-42 12 7 21 19 24 35" id="cg"/><path d="M143 0L79-87 56-68V0H24v-261h32v163l83-92h37l-77 82L181 0h-38" id="ch"/><g id="U"><use transform="matrix(0.05,0,0,0.05,0,0)" xlink:href="#cf"/><use transform="matrix(0.05,0,0,0.05,8.950000000000001,0)" xlink:href="#ca"/><use transform="matrix(0.05,0,0,0.05,18.950000000000003,0)" xlink:href="#cg"/><use transform="matrix(0.05,0,0,0.05,27.950000000000003,0)" xlink:href="#ch"/></g><path fill="#3a414a" d="M30-248c118-7 216 8 213 122C240-48 200 0 122 0H30v-248zM63-27c89 8 146-16 146-99s-60-101-146-95v194" id="ci"/><g id="V"><use transform="matrix(0.06172839506172839,0,0,0.06172839506172839,0,0)" xlink:href="#bK"/><use transform="matrix(0.06172839506172839,0,0,0.06172839506172839,15.987654320987653,0)" xlink:href="#ci"/><use transform="matrix(0.06172839506172839,0,0,0.06172839506172839,31.975308641975307,0)" xlink:href="#bN"/></g><path fill="#3a414a" d="M30-248c87 1 191-15 191 75 0 78-77 80-158 76V0H30v-248zm33 125c57 0 124 11 124-50 0-59-68-47-124-48v98" id="cj"/><g id="W"><use transform="matrix(0.06172839506172839,0,0,0.06172839506172839,0,0)" xlink:href="#cj"/><use transform="matrix(0.06172839506172839,0,0,0.06172839506172839,14.814814814814813,0)" xlink:href="#bv"/><use transform="matrix(0.06172839506172839,0,0,0.06172839506172839,22.160493827160494,0)" xlink:href="#bG"/><use transform="matrix(0.06172839506172839,0,0,0.06172839506172839,27.037037037037038,0)" xlink:href="#bL"/><use transform="matrix(0.06172839506172839,0,0,0.06172839506172839,45.49382716049382,0)" xlink:href="#bx"/><use transform="matrix(0.06172839506172839,0,0,0.06172839506172839,57.8395061728395,0)" xlink:href="#bv"/><use transform="matrix(0.06172839506172839,0,0,0.06172839506172839,65.18518518518518,0)" xlink:href="#bz"/></g><g id="X"><use transform="matrix(0.06172839506172839,0,0,0.06172839506172839,0,0)" xlink:href="#br"/><use transform="matrix(0.06172839506172839,0,0,0.06172839506172839,6.172839506172839,0)" xlink:href="#bs"/><use transform="matrix(0.06172839506172839,0,0,0.06172839506172839,18.51851851851852,0)" xlink:href="#bF"/><use transform="matrix(0.06172839506172839,0,0,0.06172839506172839,29.62962962962963,0)" xlink:href="#bt"/><use transform="matrix(0.06172839506172839,0,0,0.06172839506172839,35.80246913580247,0)" xlink:href="#bx"/><use transform="matrix(0.06172839506172839,0,0,0.06172839506172839,48.148148148148145,0)" xlink:href="#bs"/><use transform="matrix(0.06172839506172839,0,0,0.06172839506172839,60.49382716049382,0)" xlink:href="#bH"/><use transform="matrix(0.06172839506172839,0,0,0.06172839506172839,71.60493827160494,0)" xlink:href="#bu"/></g><path fill="#3a414a" d="M115-194c53 0 69 39 70 98 0 66-23 100-70 100C84 3 66-7 56-30L54 0H23l1-261h32v101c10-23 28-34 59-34zm-8 174c40 0 45-34 45-75 0-40-5-75-45-74-42 0-51 32-51 76 0 43 10 73 51 73" id="ck"/><g id="Y"><use transform="matrix(0.06172839506172839,0,0,0.06172839506172839,0,0)" xlink:href="#bN"/><use transform="matrix(0.06172839506172839,0,0,0.06172839506172839,14.814814814814813,0)" xlink:href="#bt"/><use transform="matrix(0.06172839506172839,0,0,0.06172839506172839,20.98765432098765,0)" xlink:href="#bx"/><use transform="matrix(0.06172839506172839,0,0,0.06172839506172839,33.33333333333333,0)" xlink:href="#bs"/><use transform="matrix(0.06172839506172839,0,0,0.06172839506172839,45.679012345679006,0)" xlink:href="#bU"/><use transform="matrix(0.06172839506172839,0,0,0.06172839506172839,58.02469135802468,0)" xlink:href="#ck"/><use transform="matrix(0.06172839506172839,0,0,0.06172839506172839,70.37037037037037,0)" xlink:href="#bz"/></g><g id="Z"><use transform="matrix(0.06172839506172839,0,0,0.06172839506172839,0,0)" xlink:href="#bB"/><use transform="matrix(0.06172839506172839,0,0,0.06172839506172839,14.814814814814813,0)" xlink:href="#bL"/><use transform="matrix(0.06172839506172839,0,0,0.06172839506172839,33.2716049382716,0)" xlink:href="#bx"/><use transform="matrix(0.06172839506172839,0,0,0.06172839506172839,45.61728395061728,0)" xlink:href="#bM"/><use transform="matrix(0.06172839506172839,0,0,0.06172839506172839,56.72839506172839,0)" xlink:href="#bJ"/><use transform="matrix(0.06172839506172839,0,0,0.06172839506172839,69.07407407407408,0)" xlink:href="#bs"/></g><path fill="#3a414a" d="M84 4C-5 8 30-112 23-190h32v120c0 31 7 50 39 49 72-2 45-101 50-169h31l1 190h-30c-1-10 1-25-2-33-11 22-28 36-60 37" id="cl"/><g id="aa"><use transform="matrix(0.06172839506172839,0,0,0.06172839506172839,0,0)" xlink:href="#bK"/><use transform="matrix(0.06172839506172839,0,0,0.06172839506172839,15.987654320987653,0)" xlink:href="#bJ"/><use transform="matrix(0.06172839506172839,0,0,0.06172839506172839,28.333333333333332,0)" xlink:href="#cl"/><use transform="matrix(0.06172839506172839,0,0,0.06172839506172839,40.67901234567901,0)" xlink:href="#bt"/><use transform="matrix(0.06172839506172839,0,0,0.06172839506172839,46.851851851851855,0)" xlink:href="#bu"/></g><path fill="#3a414a" d="M54-142c48-35 137-8 131 61C196 18 31 33 14-55l32-4c7 23 22 37 52 37 35-1 51-22 54-58 4-55-73-65-99-34H22l8-134h141v27H59" id="cm"/><g id="ab"><use transform="matrix(0.06172839506172839,0,0,0.06172839506172839,0,0)" xlink:href="#cm"/><use transform="matrix(0.06172839506172839,0,0,0.06172839506172839,12.345679012345679,0)" xlink:href="#bR"/></g></defs></g></svg>